<?xml version="1.0" standalone="no"?>
<!DOCTYPE svg PUBLIC "-//W3C//DTD SVG 20010904//EN"
 "http://www.w3.org/TR/2001/REC-SVG-20010904/DTD/svg10.dtd">
<svg version="1.0" xmlns="http://www.w3.org/2000/svg"
 width="3464.000000pt" height="3464.000000pt" viewBox="0 0 3464.000000 3464.000000"
 preserveAspectRatio="xMidYMid meet">

<g transform="translate(0.000000,3464.000000) scale(0.100000,-0.100000)"
fill="#000000" stroke="none">
<path d="M16846 27700 c-204 -8 -396 -22 -546 -42 -41 -5 -122 -13 -180 -18
-147 -13 -352 -39 -429 -55 -36 -7 -109 -19 -161 -25 -52 -7 -135 -21 -185
-32 -49 -10 -130 -26 -180 -34 -49 -7 -117 -21 -150 -29 -33 -8 -87 -21 -120
-28 -33 -8 -96 -24 -140 -37 -44 -12 -129 -34 -190 -50 -100 -26 -142 -37
-312 -84 -28 -8 -60 -19 -70 -24 -10 -5 -36 -13 -58 -17 -22 -4 -44 -10 -50
-15 -5 -4 -68 -28 -140 -53 -71 -25 -155 -55 -185 -67 -30 -12 -73 -27 -95
-35 -71 -24 -120 -43 -179 -69 -32 -14 -62 -26 -66 -26 -5 0 -41 -15 -82 -34
-40 -19 -116 -52 -169 -75 -255 -107 -695 -348 -1004 -549 -307 -200 -597
-397 -680 -462 -22 -17 -101 -77 -175 -132 -148 -111 -283 -214 -315 -240
-128 -105 -297 -247 -365 -306 -161 -141 -546 -527 -635 -637 -43 -52 -90
-107 -145 -164 -8 -9 -23 -29 -33 -43 -9 -15 -36 -49 -60 -76 -50 -58 -74 -88
-167 -209 -38 -51 -100 -133 -137 -182 -38 -48 -75 -98 -83 -111 -8 -12 -29
-41 -45 -64 -17 -22 -52 -72 -78 -111 -26 -38 -60 -88 -76 -110 -56 -78 -218
-331 -276 -430 -32 -55 -70 -118 -84 -140 -43 -68 -288 -548 -364 -715 -76
-167 -93 -203 -132 -285 -23 -49 -59 -135 -80 -190 -21 -55 -58 -152 -82 -215
-24 -63 -49 -131 -55 -150 -5 -19 -14 -39 -19 -45 -5 -5 -9 -15 -9 -23 0 -8
-6 -28 -14 -45 -12 -29 -28 -78 -122 -377 -76 -240 -117 -390 -148 -535 -55
-262 -67 -320 -81 -400 -23 -127 -45 -242 -57 -295 -20 -84 -58 -363 -83 -610
-61 -589 -81 -1066 -65 -1541 9 -274 14 -332 45 -594 8 -66 19 -163 25 -215
19 -183 52 -404 85 -575 8 -44 24 -134 35 -199 12 -66 34 -174 51 -240 16 -66
29 -131 29 -144 0 -13 6 -47 14 -75 23 -90 38 -150 51 -212 13 -60 21 -89 68
-240 13 -44 34 -116 47 -160 54 -190 92 -312 106 -343 8 -18 14 -40 14 -50 0
-9 7 -26 15 -36 8 -11 15 -27 15 -37 0 -14 12 -47 50 -134 5 -11 34 -85 65
-165 90 -230 93 -238 206 -476 16 -34 29 -65 29 -68 0 -10 135 -280 189 -381
24 -44 59 -108 77 -142 18 -34 52 -93 75 -130 23 -37 49 -81 59 -98 9 -16 33
-56 54 -87 20 -32 41 -68 46 -80 12 -28 27 -52 61 -98 14 -19 40 -60 58 -90
41 -71 38 -67 156 -244 144 -215 191 -282 250 -356 28 -36 64 -84 79 -108 15
-23 34 -51 44 -60 9 -10 53 -63 96 -117 44 -55 82 -102 85 -105 3 -3 24 -27
46 -55 166 -210 598 -662 845 -886 310 -281 463 -414 529 -459 20 -14 61 -45
92 -70 31 -25 69 -55 85 -68 16 -13 58 -44 94 -68 36 -25 92 -65 125 -89 71
-53 165 -118 180 -125 11 -6 121 -77 241 -156 44 -30 85 -54 91 -54 6 0 13 -3
15 -7 3 -9 130 -87 218 -136 30 -17 73 -42 95 -56 22 -13 90 -50 150 -82 61
-31 130 -68 155 -82 53 -30 91 -49 220 -110 52 -25 166 -79 252 -121 86 -42
163 -76 170 -76 8 0 18 -4 24 -9 5 -5 74 -37 154 -70 140 -60 164 -70 240
-103 19 -8 51 -20 70 -27 54 -19 220 -80 265 -97 22 -9 58 -22 80 -29 22 -8
92 -32 155 -55 116 -41 194 -66 240 -77 14 -3 63 -17 110 -30 128 -37 389
-104 442 -113 27 -5 53 -12 59 -16 12 -7 86 -23 234 -49 44 -8 96 -18 115 -23
60 -16 271 -50 580 -92 47 -7 150 -18 230 -26 80 -8 195 -19 255 -26 148 -15
1229 -15 1395 0 69 6 197 18 285 26 88 8 189 19 225 25 36 6 130 20 210 31
208 29 276 40 355 56 39 8 108 21 155 28 47 8 101 19 120 25 19 6 49 11 65 11
17 0 36 5 41 10 6 6 33 15 60 19 27 5 85 19 129 31 44 12 114 30 155 40 41 10
100 26 130 35 30 9 80 23 110 31 86 21 233 66 275 84 11 5 36 14 55 19 32 9
112 38 215 77 22 9 57 20 78 25 21 5 45 13 55 18 50 25 111 51 120 51 11 0 29
7 132 53 30 14 98 44 150 67 251 110 644 306 784 390 191 114 201 120 216 127
13 7 48 29 190 122 14 9 30 18 35 21 14 7 184 118 220 144 17 11 66 44 110 73
138 90 294 200 345 244 14 12 42 32 62 46 71 44 354 268 490 388 254 222 805
777 1000 1005 113 133 213 254 243 295 15 21 57 74 157 199 61 75 193 263 288
406 5 8 39 58 75 110 35 52 79 119 97 149 18 29 40 63 48 76 14 21 70 111 95
153 191 318 303 509 334 572 12 25 47 90 77 145 63 116 150 297 189 390 13 31
28 65 87 195 19 41 42 95 52 120 10 25 23 59 30 75 17 39 35 92 48 135 5 19
14 40 18 45 4 6 13 26 18 45 14 47 40 120 52 145 5 11 14 36 19 55 6 19 20 62
31 95 23 62 42 124 65 210 8 28 24 82 35 120 11 39 27 95 34 125 8 30 23 91
36 135 41 149 51 190 64 250 7 33 18 76 24 95 6 19 15 60 21 90 6 30 18 89 27
130 8 41 21 113 29 160 17 106 33 187 50 265 8 33 16 85 20 115 3 30 12 87 20
125 15 77 29 174 51 365 8 69 19 152 23 185 5 33 10 94 10 135 1 41 8 120 16
175 11 78 15 219 14 630 0 292 -4 575 -9 630 -6 55 -14 170 -20 255 -5 85 -14
168 -20 185 -5 16 -14 75 -19 130 -10 104 -24 207 -42 310 -6 33 -15 89 -20
125 -5 36 -15 97 -23 135 -18 85 -35 175 -52 275 -23 139 -41 227 -49 239 -4
7 -10 36 -15 64 -9 64 -38 179 -82 332 -24 81 -54 187 -75 265 -9 30 -22 71
-29 90 -7 19 -16 51 -20 70 -3 19 -10 40 -14 45 -4 6 -12 28 -18 50 -12 48
-30 99 -47 140 -7 17 -27 68 -43 115 -16 47 -42 111 -56 144 -14 32 -26 67
-26 77 0 10 -4 20 -9 24 -5 3 -13 20 -16 38 -4 17 -13 43 -20 57 -21 43 -42
91 -105 240 -83 195 -321 672 -418 837 -23 39 -42 75 -42 79 0 4 -6 15 -14 23
-7 9 -30 46 -50 83 -19 37 -48 87 -63 110 -32 50 -38 59 -80 130 -45 76 -154
241 -210 321 -26 37 -64 90 -83 117 -157 222 -393 535 -494 654 -265 315 -741
795 -1016 1026 -42 36 -130 110 -195 165 -64 55 -129 109 -144 120 -14 11 -60
47 -102 80 -42 33 -121 92 -175 130 -53 39 -102 75 -108 80 -6 6 -31 24 -55
40 -240 165 -318 216 -456 301 -88 54 -162 100 -165 104 -5 5 -33 22 -130 78
-19 11 -64 37 -100 57 -36 21 -76 44 -90 52 -14 8 -52 30 -85 49 -56 32 -274
141 -465 232 -89 43 -271 118 -377 157 -34 13 -82 32 -106 44 -24 11 -47 21
-51 21 -4 0 -22 6 -39 14 -18 8 -115 42 -217 76 -102 34 -214 72 -250 85 -36
12 -94 32 -130 43 -208 64 -275 83 -365 107 -55 14 -129 35 -165 46 -36 10
-105 28 -155 39 -49 11 -117 27 -150 36 -33 8 -94 21 -135 29 -41 7 -113 21
-160 30 -86 17 -215 39 -435 76 -66 11 -178 27 -250 35 -71 8 -184 21 -250 29
-66 8 -167 19 -225 25 -143 13 -957 20 -1214 10z m924 -470 c135 -5 286 -14
335 -19 50 -6 140 -15 200 -22 99 -10 202 -25 435 -64 41 -7 109 -18 150 -25
41 -6 105 -18 141 -26 37 -8 80 -14 96 -14 17 0 52 -7 79 -15 27 -8 59 -15 70
-15 12 0 44 -6 70 -14 27 -8 101 -29 164 -47 63 -18 144 -41 180 -51 36 -11
83 -23 106 -28 22 -5 51 -13 65 -18 13 -6 53 -18 89 -27 316 -83 694 -220 995
-360 114 -53 163 -75 171 -75 9 0 103 -45 304 -145 150 -74 205 -103 325 -170
22 -12 69 -38 105 -58 142 -76 327 -182 380 -217 14 -9 70 -46 125 -82 318
-207 440 -291 527 -364 40 -33 89 -71 108 -84 19 -13 40 -28 45 -34 6 -7 39
-36 75 -65 36 -30 94 -81 130 -114 36 -32 108 -93 160 -135 113 -90 571 -547
766 -764 75 -84 153 -171 173 -193 50 -56 214 -263 292 -368 35 -48 83 -113
106 -145 24 -31 87 -122 140 -202 54 -80 116 -170 139 -200 23 -30 56 -82 75
-115 18 -33 49 -84 69 -114 19 -30 46 -72 60 -95 14 -23 39 -63 55 -90 87
-142 158 -264 166 -283 4 -12 19 -39 32 -60 12 -21 36 -67 52 -103 15 -36 57
-126 93 -200 35 -74 70 -148 77 -165 33 -73 75 -167 114 -250 23 -49 50 -108
60 -130 25 -54 95 -238 116 -300 49 -153 68 -211 100 -320 20 -66 42 -136 49
-155 30 -81 38 -107 46 -140 4 -19 22 -78 40 -130 68 -205 92 -288 106 -375 8
-49 18 -110 23 -135 5 -25 16 -88 25 -140 25 -145 46 -268 61 -345 30 -156 80
-528 90 -660 4 -49 11 -109 16 -132 14 -63 19 -258 19 -698 0 -388 -8 -590
-29 -745 -6 -41 -13 -111 -15 -155 -3 -44 -7 -100 -10 -125 -3 -25 -10 -117
-16 -205 -6 -88 -15 -176 -20 -195 -11 -42 -36 -177 -55 -298 -8 -48 -21 -121
-30 -162 -9 -41 -22 -109 -29 -150 -16 -83 -62 -267 -126 -495 -23 -82 -53
-193 -66 -245 -13 -52 -29 -106 -33 -120 -5 -14 -26 -79 -46 -145 -21 -66 -52
-165 -70 -220 -19 -55 -37 -117 -40 -138 -4 -20 -11 -40 -16 -43 -5 -3 -9 -13
-9 -22 0 -9 -7 -30 -15 -46 -8 -15 -15 -33 -15 -38 0 -12 -68 -171 -126 -295
-25 -54 -62 -132 -81 -173 -19 -41 -65 -138 -103 -215 -77 -159 -110 -231
-110 -240 0 -3 -10 -22 -23 -43 -13 -20 -37 -62 -54 -92 -17 -30 -49 -84 -72
-120 -22 -36 -45 -74 -50 -85 -5 -11 -20 -36 -33 -55 -13 -19 -27 -43 -31 -54
-4 -10 -27 -48 -51 -85 -42 -63 -143 -226 -200 -321 -15 -25 -46 -72 -69 -105
-23 -33 -65 -97 -94 -142 -28 -44 -71 -105 -95 -134 -24 -30 -61 -79 -81 -109
-175 -254 -274 -383 -410 -527 -45 -48 -117 -126 -159 -173 -87 -97 -642 -650
-763 -761 -44 -40 -100 -91 -125 -114 -56 -51 -220 -179 -337 -263 -222 -160
-275 -198 -378 -268 -60 -41 -157 -108 -215 -149 -58 -41 -112 -78 -120 -82
-8 -4 -40 -24 -72 -45 -31 -21 -60 -38 -64 -38 -3 0 -23 -13 -43 -28 -20 -16
-43 -32 -51 -35 -16 -8 -38 -20 -192 -110 -53 -30 -127 -73 -165 -93 -383
-209 -533 -280 -843 -400 -63 -24 -123 -49 -132 -54 -10 -6 -23 -10 -30 -10
-7 -1 -31 -9 -53 -20 -22 -11 -45 -19 -52 -20 -7 0 -27 -6 -45 -14 -18 -7 -49
-19 -68 -26 -19 -6 -84 -30 -145 -51 -181 -66 -316 -105 -551 -159 -66 -15
-136 -32 -155 -38 -19 -6 -74 -21 -124 -32 -49 -12 -117 -28 -150 -36 -33 -8
-82 -19 -110 -23 -27 -5 -93 -19 -145 -30 -95 -21 -148 -30 -310 -51 -47 -6
-114 -15 -150 -21 -101 -16 -375 -41 -635 -58 -301 -20 -1031 -8 -1215 19 -36
5 -114 14 -175 19 -241 21 -343 33 -413 47 -40 8 -98 14 -130 14 -31 0 -75 5
-97 11 -22 5 -85 16 -140 25 -150 22 -265 41 -315 53 -64 14 -285 69 -350 87
-30 8 -75 20 -100 26 -25 6 -49 14 -55 18 -5 4 -26 11 -45 15 -19 3 -55 12
-80 20 -25 7 -74 20 -110 30 -36 9 -72 20 -80 25 -9 4 -54 17 -100 29 -47 13
-112 33 -146 47 -33 13 -66 24 -72 24 -10 0 -39 11 -117 45 -16 8 -41 17 -55
21 -23 6 -179 74 -298 130 -30 14 -75 34 -100 45 -68 29 -496 234 -585 281
-10 5 -37 19 -60 30 -99 50 -474 269 -612 358 -13 8 -44 27 -68 43 -25 15
-101 66 -169 114 -68 48 -144 101 -169 118 -52 36 -102 73 -175 130 -28 22
-64 49 -80 60 -80 56 -305 228 -344 265 -25 23 -67 58 -95 79 -27 21 -81 67
-120 102 -38 35 -92 82 -120 104 -69 55 -547 527 -608 600 -50 60 -179 204
-228 256 -91 94 -619 790 -619 815 0 2 -39 62 -87 132 -134 197 -138 204 -164
252 -23 44 -151 271 -169 300 -5 8 -21 40 -37 70 -15 30 -46 87 -69 125 -22
39 -62 111 -88 160 -26 50 -51 97 -56 105 -4 8 -20 40 -35 70 -15 30 -54 108
-86 172 -33 65 -59 123 -59 129 0 6 -6 23 -13 37 -33 65 -87 189 -87 200 0 5
-6 22 -14 38 -30 63 -86 215 -121 329 -20 66 -43 135 -51 153 -8 18 -14 38
-14 44 0 6 -25 91 -55 187 -52 165 -68 219 -100 331 -7 25 -20 68 -29 97 -9
28 -21 71 -26 95 -5 24 -16 70 -24 103 -20 84 -70 332 -90 445 -9 52 -21 120
-26 150 -57 314 -80 490 -90 685 -5 94 -14 222 -20 285 -16 173 -24 1009 -11
1175 20 270 32 391 46 500 9 61 15 139 15 175 0 36 5 94 11 130 5 36 14 98 19
138 14 113 87 464 121 582 6 19 16 64 23 100 8 36 25 109 40 163 14 53 26 108
26 120 0 13 4 27 10 33 5 5 14 30 19 54 10 51 23 101 75 280 60 209 68 234 82
268 8 18 14 38 14 45 0 7 6 24 14 39 8 15 17 41 21 59 4 19 11 40 16 49 5 8
22 53 38 100 16 47 39 110 51 140 12 30 26 71 32 90 5 19 14 39 19 45 5 5 9
16 9 25 1 8 9 33 20 55 11 22 19 45 20 52 0 11 13 45 46 118 7 17 20 48 29 70
44 109 225 475 250 505 7 8 27 42 45 75 27 50 73 130 135 237 6 10 35 58 65
109 30 50 60 98 65 107 44 74 117 190 160 257 29 44 78 121 111 170 32 50 90
133 129 185 39 52 77 105 85 117 13 18 111 146 223 289 122 157 222 266 500
546 495 495 821 779 1305 1135 210 155 276 203 291 210 8 3 49 30 92 59 125
84 337 209 534 315 44 23 98 53 120 65 22 13 67 36 100 53 33 17 87 45 120 62
33 17 72 37 87 45 14 8 33 14 42 14 9 0 33 9 53 20 21 11 43 20 50 20 6 0 24
7 40 15 59 30 227 101 328 139 33 13 71 28 85 33 26 11 87 35 155 60 22 8 60
23 85 33 103 42 228 88 280 103 118 34 207 60 260 74 30 8 75 21 100 28 25 7
137 39 250 69 113 31 228 63 256 71 28 8 61 15 73 15 12 0 43 6 69 14 45 13
92 22 267 51 44 7 105 17 135 23 30 6 123 20 205 32 83 11 193 27 245 35 115
17 474 45 620 48 265 6 727 5 950 -3z"/>
<path d="M16855 26740 c-33 -4 -100 -8 -150 -9 -49 -1 -108 -6 -130 -11 -22
-5 -87 -11 -145 -14 -114 -6 -319 -28 -470 -51 -52 -8 -111 -17 -130 -20 -128
-19 -332 -58 -345 -66 -5 -4 -38 -10 -73 -14 -34 -4 -64 -11 -67 -15 -3 -5
-27 -12 -53 -16 -26 -3 -52 -11 -58 -16 -7 -5 -36 -11 -65 -15 -30 -3 -58 -9
-64 -13 -5 -5 -32 -13 -60 -19 -114 -23 -150 -32 -179 -40 -17 -6 -60 -17 -96
-26 -108 -28 -229 -66 -285 -90 -16 -7 -55 -20 -85 -30 -30 -9 -82 -25 -115
-36 -33 -12 -96 -32 -140 -46 -44 -14 -94 -32 -112 -39 -17 -8 -37 -14 -45
-14 -7 0 -22 -7 -32 -15 -11 -8 -26 -15 -33 -15 -7 0 -56 -20 -107 -45 -52
-25 -100 -45 -106 -45 -5 0 -18 -4 -28 -9 -25 -12 -81 -36 -132 -57 -86 -34
-135 -57 -140 -64 -5 -8 -14 -13 -260 -138 -90 -45 -171 -88 -179 -96 -17 -16
-53 -36 -206 -116 -55 -29 -102 -56 -105 -60 -3 -4 -32 -22 -65 -40 -33 -17
-69 -41 -81 -51 -11 -10 -25 -19 -31 -19 -5 0 -18 -9 -28 -20 -10 -11 -27 -22
-38 -26 -31 -10 -169 -95 -196 -121 -13 -13 -69 -53 -125 -90 -56 -37 -110
-76 -121 -86 -11 -11 -36 -31 -55 -46 -19 -14 -44 -34 -54 -43 -11 -10 -38
-30 -60 -45 -23 -16 -42 -31 -44 -35 -2 -5 -10 -8 -18 -8 -8 0 -14 -4 -14 -8
0 -5 -29 -29 -64 -55 -36 -26 -76 -61 -90 -77 -13 -17 -55 -53 -93 -82 -71
-54 -219 -193 -332 -312 -36 -38 -81 -83 -100 -100 -18 -17 -56 -55 -85 -85
-28 -29 -94 -97 -146 -150 -52 -53 -120 -125 -150 -161 -30 -35 -79 -89 -108
-120 -29 -30 -69 -78 -88 -107 -19 -29 -40 -56 -47 -60 -17 -10 -129 -154
-184 -236 -109 -162 -131 -192 -171 -235 -24 -26 -46 -59 -49 -74 -3 -16 -9
-28 -13 -28 -4 0 -15 -18 -26 -40 -10 -22 -23 -40 -27 -40 -4 0 -13 -13 -18
-30 -6 -16 -15 -30 -20 -30 -5 0 -9 -7 -9 -15 0 -8 -7 -15 -15 -15 -8 0 -15
-7 -15 -15 0 -8 -4 -15 -10 -15 -5 0 -12 -11 -16 -25 -3 -14 -11 -29 -18 -33
-6 -4 -20 -25 -31 -47 -10 -22 -25 -48 -33 -57 -7 -9 -12 -27 -10 -40 4 -21 6
-20 20 12 9 19 28 46 42 59 14 14 26 29 26 34 0 6 11 25 26 44 14 18 30 46 35
61 5 16 23 39 39 51 17 12 30 31 30 42 0 11 7 22 15 25 8 3 17 15 21 27 8 25
107 169 129 187 8 7 15 17 15 22 0 5 26 40 58 78 73 88 126 159 146 196 8 16
28 43 43 61 15 17 37 44 48 60 11 15 39 48 62 72 24 24 43 48 43 52 0 5 35 43
77 86 42 43 87 93 100 110 20 30 72 82 164 165 20 18 53 58 74 88 20 30 56 68
79 85 50 36 73 59 105 103 13 19 29 31 37 28 8 -3 19 4 25 16 15 29 169 176
191 183 9 3 20 14 23 24 3 10 18 24 33 32 14 8 69 56 121 107 52 50 99 92 105
92 6 0 16 8 23 19 14 22 116 100 158 121 17 8 51 33 77 55 101 87 251 195 271
195 7 0 26 14 42 30 16 17 37 30 47 30 11 0 29 11 41 24 12 12 39 28 59 35 21
7 40 21 43 32 4 10 18 22 32 25 30 8 71 32 152 91 32 23 69 47 82 53 13 6 38
19 54 30 17 10 57 33 90 50 33 17 83 44 110 60 28 16 58 32 68 36 9 3 17 10
17 14 0 4 12 11 27 15 15 3 57 24 94 46 37 21 79 39 93 39 14 0 26 4 26 8 0
10 124 92 139 92 6 0 30 11 53 25 61 36 90 49 203 90 55 19 113 42 128 50 16
8 34 15 40 15 6 0 34 11 62 25 95 46 141 65 161 65 10 0 41 11 69 24 74 35
451 156 486 156 10 0 20 4 23 9 3 5 37 17 76 26 39 9 73 21 76 26 3 5 24 9 48
9 23 0 51 7 62 15 10 8 33 15 51 15 18 0 42 4 55 9 13 5 59 16 103 25 44 9
118 29 164 43 46 15 91 28 100 29 78 10 156 25 206 39 33 10 99 21 147 25 48
5 96 13 107 19 11 6 39 11 63 11 24 0 86 7 138 16 107 17 242 33 345 40 39 2
86 7 105 10 34 5 61 8 185 19 84 8 914 9 1005 2 41 -3 98 -8 125 -11 28 -2 84
-7 125 -11 41 -4 91 -9 110 -11 19 -1 85 -8 145 -14 194 -18 348 -42 408 -61
32 -10 64 -16 72 -13 8 3 45 -2 82 -11 37 -10 93 -21 123 -26 93 -15 155 -35
158 -52 2 -8 -6 -18 -17 -22 -21 -6 -28 -29 -13 -39 5 -3 22 -2 37 3 19 4 25
10 17 15 -7 4 -12 19 -12 33 0 21 4 24 23 20 12 -3 65 -15 117 -27 52 -12 109
-24 125 -26 17 -3 53 -11 80 -19 28 -8 79 -21 115 -31 36 -9 86 -25 112 -35
26 -11 58 -19 71 -19 13 0 46 -12 72 -26 28 -14 58 -23 69 -20 23 5 121 -25
139 -43 6 -6 22 -11 36 -11 26 0 104 -27 176 -61 22 -10 63 -24 90 -30 28 -7
64 -18 82 -26 77 -33 179 -73 185 -73 15 0 136 -59 143 -69 3 -6 19 -11 34
-11 15 0 36 -7 47 -15 10 -8 31 -15 46 -15 15 0 31 -8 37 -17 5 -10 23 -18 41
-19 18 -1 35 -6 39 -12 3 -5 23 -14 43 -20 20 -5 56 -23 80 -39 24 -16 70 -40
103 -53 33 -13 67 -30 76 -37 8 -7 23 -13 31 -13 9 0 21 -7 28 -15 7 -8 18
-15 26 -15 20 0 86 -32 105 -51 9 -10 32 -20 50 -24 19 -4 49 -20 67 -36 18
-16 39 -29 46 -29 18 0 179 -95 196 -115 7 -8 22 -15 35 -15 12 0 38 -16 58
-35 35 -34 87 -56 87 -37 0 6 -17 21 -37 33 -21 13 -39 27 -41 31 -2 4 -11 8
-21 8 -9 0 -24 9 -34 20 -9 11 -23 20 -31 20 -8 0 -16 3 -18 8 -6 13 -67 52
-83 52 -8 0 -15 3 -15 8 0 4 -22 18 -50 31 -27 13 -50 27 -50 31 0 4 -10 10
-23 14 -13 3 -35 16 -49 28 -26 24 -78 52 -115 63 -13 3 -23 11 -23 16 0 5 -5
9 -10 9 -6 0 -39 13 -73 29 -34 16 -84 39 -112 51 -27 12 -62 31 -76 41 -14
10 -37 21 -52 24 -15 4 -27 11 -27 16 0 5 -5 9 -11 9 -7 0 -30 8 -53 19 -88
40 -117 51 -135 51 -10 0 -24 7 -31 15 -7 8 -23 15 -35 15 -13 0 -36 6 -52 14
-15 8 -58 29 -95 46 -37 17 -70 35 -73 40 -4 6 -17 10 -29 10 -13 0 -29 7 -36
15 -7 8 -21 15 -32 15 -11 0 -34 6 -51 13 -43 19 -93 36 -149 53 -27 8 -69 20
-95 28 -79 23 -166 56 -195 71 -14 8 -33 15 -41 15 -8 0 -28 7 -43 15 -16 8
-37 15 -46 15 -10 0 -32 6 -50 14 -30 13 -66 23 -213 62 -27 7 -84 22 -125 34
-41 12 -101 28 -132 36 -32 8 -86 21 -120 30 -35 9 -82 20 -106 25 -23 4 -50
13 -60 18 -9 5 -44 12 -77 16 -33 4 -68 12 -78 17 -18 9 -83 20 -257 43 -58 7
-159 21 -225 29 -91 12 -535 57 -645 65 -86 6 -840 7 -885 1z"/>
<path d="M17217 26620 c-5 -19 0 -20 99 -20 89 0 104 2 104 16 0 12 -6 15 -25
10 -14 -4 -34 -1 -44 6 -16 10 -23 9 -38 -4 -16 -14 -21 -15 -43 -3 -35 20
-47 18 -53 -5z"/>
<path d="M17087 26623 c-4 -3 -98 -6 -210 -5 -111 0 -209 -3 -216 -8 -21 -12
85 -16 324 -10 192 5 206 6 163 18 -55 14 -53 14 -61 5z"/>
<path d="M17605 26611 c-39 -4 22 -8 168 -12 139 -4 232 -10 235 -16 9 -14
258 -26 297 -15 29 8 27 9 -22 16 -29 3 -100 6 -159 5 -61 -1 -109 3 -113 9
-7 12 -319 22 -406 13z"/>
<path d="M16287 26583 c-117 -6 -65 -18 64 -15 80 2 118 6 109 12 -15 9 -34
10 -173 3z"/>
<path d="M16528 26573 c7 -3 16 -2 19 1 4 3 -2 6 -13 5 -11 0 -14 -3 -6 -6z"/>
<path d="M16568 26573 c7 -3 16 -2 19 1 4 3 -2 6 -13 5 -11 0 -14 -3 -6 -6z"/>
<path d="M16028 26553 c-21 -2 -38 -9 -38 -15 0 -5 7 -7 16 -4 9 3 58 6 110 6
56 0 94 4 94 10 0 10 -101 11 -182 3z"/>
<path d="M18340 26551 c0 -12 202 -20 215 -9 5 5 3 8 -5 9 -124 6 -210 6 -210
0z"/>
<path d="M15850 26520 c-18 -6 -8 -8 40 -9 45 0 60 2 50 9 -18 11 -55 11 -90
0z"/>
<path d="M18570 26519 c0 -9 112 -16 142 -8 20 5 18 7 -12 12 -47 8 -130 6
-130 -4z"/>
<path d="M15768 26488 c9 -9 15 -9 24 0 9 9 7 12 -12 12 -19 0 -21 -3 -12 -12z"/>
<path d="M18786 26489 c3 -5 26 -9 51 -9 26 0 44 2 42 4 -9 8 -98 13 -93 5z"/>
<path d="M18915 26460 c3 -5 20 -10 36 -10 18 0 28 4 24 10 -3 6 -20 10 -36
10 -18 0 -28 -4 -24 -10z"/>
<path d="M15508 26433 c7 -3 16 -2 19 1 4 3 -2 6 -13 5 -11 0 -14 -3 -6 -6z"/>
<path d="M19175 26423 c-46 -10 -51 -13 -35 -23 8 -6 28 -10 43 -10 15 0 38
-6 50 -14 27 -17 134 -28 142 -15 9 13 -40 29 -89 29 -30 0 -48 6 -61 20 -10
11 -21 19 -24 19 -3 -1 -15 -3 -26 -6z"/>
<path d="M15375 26400 c-3 -5 -1 -10 4 -10 6 0 11 5 11 10 0 6 -2 10 -4 10 -3
0 -8 -4 -11 -10z"/>
<path d="M15255 26370 c8 -13 35 -13 55 0 11 7 5 10 -23 10 -23 0 -36 -4 -32
-10z"/>
<path d="M15190 26350 c-13 -8 -12 -10 3 -10 9 0 17 5 17 10 0 12 -1 12 -20 0z"/>
<path d="M19390 26352 c0 -11 102 -40 168 -47 28 -4 41 -2 37 5 -3 5 -19 10
-35 10 -16 0 -36 8 -45 17 -19 19 -125 32 -125 15z"/>
<path d="M19655 26290 c-9 -15 50 -40 92 -39 33 1 35 2 13 8 -14 5 -40 15 -57
24 -37 20 -40 20 -48 7z"/>
<path d="M19855 26230 c-3 -5 14 -18 39 -30 47 -21 96 -27 96 -11 0 12 -26 21
-60 21 -15 0 -33 7 -40 15 -14 17 -26 19 -35 5z"/>
<path d="M20009 26169 c-11 -7 -8 -9 9 -9 12 0 25 -7 28 -15 4 -10 20 -15 44
-15 22 0 42 -4 45 -10 9 -15 25 -12 25 4 0 8 -10 17 -22 20 -13 3 -44 12 -69
20 -28 9 -51 11 -60 5z"/>
<path d="M14478 26163 c12 -2 30 -2 40 0 9 3 -1 5 -23 4 -22 0 -30 -2 -17 -4z"/>
<path d="M14378 26133 c12 -2 32 -2 45 0 12 2 2 4 -23 4 -25 0 -35 -2 -22 -4z"/>
<path d="M20170 26112 c0 -12 70 -30 77 -19 3 5 -1 13 -8 18 -17 11 -69 12
-69 1z"/>
<path d="M14298 26103 c6 -2 18 -2 25 0 6 3 1 5 -13 5 -14 0 -19 -2 -12 -5z"/>
<path d="M14213 26073 c9 -2 23 -2 30 0 6 3 -1 5 -18 5 -16 0 -22 -2 -12 -5z"/>
<path d="M20390 26030 c7 -12 21 -20 37 -20 25 0 26 0 8 20 -10 11 -27 20 -37
20 -16 0 -17 -3 -8 -20z"/>
<path d="M20522 25978 c3 -7 13 -15 22 -16 12 -3 17 1 14 10 -3 7 -13 15 -22
16 -12 3 -17 -1 -14 -10z"/>
<path d="M13918 25973 c-10 -2 -18 -9 -18 -15 0 -6 10 -8 23 -4 12 3 26 6 30
6 5 0 5 5 2 10 -6 10 -9 11 -37 3z"/>
<path d="M13831 25931 c-12 -12 -32 -21 -46 -21 -14 0 -25 -4 -25 -10 0 -15
32 -12 56 4 11 8 32 16 47 18 34 4 40 22 10 26 -12 2 -31 -6 -42 -17z"/>
<path d="M20600 25936 c0 -12 11 -16 46 -16 59 0 55 24 -4 28 -33 2 -42 0 -42
-12z"/>
<path d="M17142 25920 c0 -14 2 -19 5 -12 2 6 2 18 0 25 -3 6 -5 1 -5 -13z"/>
<path d="M18142 25920 c0 -14 2 -19 5 -12 2 6 2 18 0 25 -3 6 -5 1 -5 -13z"/>
<path d="M20700 25900 c20 -13 63 -13 55 0 -3 6 -21 10 -38 10 -24 0 -28 -3
-17 -10z"/>
<path d="M20775 25870 c3 -5 15 -10 26 -10 10 0 19 5 19 10 0 6 -12 10 -26 10
-14 0 -23 -4 -19 -10z"/>
<path d="M13610 25846 c0 -10 28 -13 41 -5 10 6 7 9 -13 9 -16 0 -28 -2 -28
-4z"/>
<path d="M17065 25810 c-9 -14 -71 -39 -126 -51 -33 -7 -63 -6 -112 4 -68 14
-90 6 -39 -14 15 -6 35 -15 44 -20 23 -12 115 -12 122 0 3 5 21 12 39 15 44 8
122 76 88 76 -6 0 -13 -5 -16 -10z"/>
<path d="M16112 25765 c0 -16 2 -22 5 -12 2 9 2 23 0 30 -3 6 -5 -1 -5 -18z"/>
<path d="M17786 25777 c3 -9 21 -25 40 -37 48 -28 165 -29 200 -1 l24 19 -57
-4 c-62 -5 -180 12 -201 29 -9 7 -11 6 -6 -6z"/>
<path d="M20980 25780 c19 -13 30 -13 30 0 0 6 -10 10 -22 10 -19 0 -20 -2 -8
-10z"/>
<path d="M13405 25730 c-3 -5 -1 -10 4 -10 6 0 11 5 11 10 0 6 -2 10 -4 10 -3
0 -8 -4 -11 -10z"/>
<path d="M16051 25700 c-18 -17 -42 -30 -52 -30 -11 0 -19 -4 -19 -10 0 -15
-69 -12 -115 5 -48 17 -88 19 -83 4 9 -28 198 -57 198 -30 0 5 15 12 33 15 36
7 70 32 80 59 9 25 -3 21 -42 -13z"/>
<path d="M13330 25700 c-11 -7 -7 -10 18 -10 17 0 32 5 32 10 0 13 -30 13 -50
0z"/>
<path d="M21140 25700 c0 -5 9 -10 21 -10 11 0 17 5 14 10 -3 6 -13 10 -21 10
-8 0 -14 -4 -14 -10z"/>
<path d="M15740 25696 c0 -2 7 -6 15 -10 8 -3 15 -1 15 4 0 6 -7 10 -15 10 -8
0 -15 -2 -15 -4z"/>
<path d="M19045 25670 c-3 -5 -1 -10 4 -10 6 0 11 5 11 10 0 6 -2 10 -4 10 -3
0 -8 -4 -11 -10z"/>
<path d="M21214 25669 c-3 -5 1 -9 10 -9 8 0 21 -3 30 -6 9 -3 16 -2 16 4 0
13 -49 22 -56 11z"/>
<path d="M13263 25663 c9 -2 23 -2 30 0 6 3 -1 5 -18 5 -16 0 -22 -2 -12 -5z"/>
<path d="M18732 25650 c16 -24 38 -34 51 -21 6 6 1 12 -17 17 -14 3 -26 10
-26 15 0 5 -5 9 -10 9 -6 0 -5 -8 2 -20z"/>
<path d="M19005 25640 c-19 -8 -19 -9 3 -9 12 -1 22 4 22 9 0 6 -1 10 -2 9 -2
0 -12 -4 -23 -9z"/>
<path d="M21275 25640 c-4 -6 3 -10 14 -10 25 0 27 6 6 13 -8 4 -17 2 -20 -3z"/>
<path d="M18860 25610 c0 -13 46 -24 60 -15 9 6 9 10 -1 16 -19 12 -59 11 -59
-1z"/>
<path d="M12965 25490 c-8 -13 5 -13 25 0 13 8 13 10 -2 10 -9 0 -20 -4 -23
-10z"/>
<path d="M15050 25480 c0 -5 -6 -10 -14 -10 -7 0 -26 -6 -41 -14 -31 -16 -129
-19 -174 -5 -17 5 -44 13 -61 18 -49 15 -44 -5 7 -31 65 -31 201 -30 256 2 34
20 56 50 37 50 -6 0 -10 -4 -10 -10z"/>
<path d="M12928 25463 c7 -3 16 -2 19 1 4 3 -2 6 -13 5 -11 0 -14 -3 -6 -6z"/>
<path d="M12845 25430 c-8 -13 5 -13 25 0 13 8 13 10 -2 10 -9 0 -20 -4 -23
-10z"/>
<path d="M12790 25401 c0 -5 9 -7 20 -4 11 3 20 7 20 9 0 2 -9 4 -20 4 -11 0
-20 -4 -20 -9z"/>
<path d="M19660 25400 c0 -5 7 -10 16 -10 8 0 12 5 9 10 -3 6 -10 10 -16 10
-5 0 -9 -4 -9 -10z"/>
<path d="M12730 25358 c0 -17 3 -19 9 -9 5 7 15 17 22 22 10 6 8 9 -8 9 -17 0
-23 -6 -23 -22z"/>
<path d="M19755 25340 c3 -5 17 -10 31 -10 14 0 34 -5 45 -11 29 -15 56 -4 39
16 -14 17 -125 22 -115 5z"/>
<path d="M22021 25300 c24 -22 50 -40 57 -40 6 0 12 -4 12 -8 0 -5 18 -17 40
-27 22 -10 45 -24 51 -32 12 -14 59 -18 59 -5 -1 10 -81 68 -132 94 -24 12
-45 25 -48 28 -7 8 -59 30 -72 30 -6 0 8 -18 33 -40z"/>
<path d="M12618 25283 c6 -2 18 -2 25 0 6 3 1 5 -13 5 -14 0 -19 -2 -12 -5z"/>
<path d="M12560 25260 c-8 -5 -12 -11 -9 -14 7 -8 49 5 49 15 0 12 -21 11 -40
-1z"/>
<path d="M21930 25260 c0 -5 5 -10 11 -10 5 0 7 5 4 10 -3 6 -8 10 -11 10 -2
0 -4 -4 -4 -10z"/>
<path d="M12518 25223 c7 -3 16 -2 19 1 4 3 -2 6 -13 5 -11 0 -14 -3 -6 -6z"/>
<path d="M12435 25170 c-3 -5 -1 -10 4 -10 6 0 11 5 11 10 0 6 -2 10 -4 10 -3
0 -8 -4 -11 -10z"/>
<path d="M22247 25155 c3 -9 22 -24 42 -35 21 -10 43 -26 50 -34 8 -9 19 -16
26 -16 7 0 24 -11 38 -24 30 -28 116 -71 124 -62 4 3 0 6 -8 6 -8 0 -22 8 -30
18 -9 9 -26 24 -39 32 -12 8 -28 20 -34 26 -7 6 -21 14 -33 18 -12 4 -24 13
-27 21 -3 8 -12 15 -21 15 -8 0 -15 4 -15 9 0 5 -11 12 -25 15 -14 4 -25 11
-25 16 0 6 -7 10 -15 10 -9 0 -12 -6 -8 -15z"/>
<path d="M14089 25102 c-62 -48 -162 -55 -276 -18 -14 5 -23 3 -23 -3 0 -6 6
-11 14 -11 8 0 16 -7 20 -15 4 -12 26 -15 109 -15 81 0 107 3 117 15 7 8 19
15 26 15 8 0 14 7 14 15 0 8 7 15 15 15 8 0 15 5 15 10 0 14 -4 13 -31 -8z"/>
<path d="M12276 25059 c-26 -25 -6 -25 24 1 14 12 18 20 9 19 -8 0 -23 -9 -33
-20z"/>
<path d="M12205 25020 c-3 -5 3 -10 14 -10 12 0 21 5 21 10 0 6 -6 10 -14 10
-8 0 -18 -4 -21 -10z"/>
<path d="M20580 24990 c0 -5 5 -10 11 -10 5 0 7 5 4 10 -3 6 -8 10 -11 10 -2
0 -4 -4 -4 -10z"/>
<path d="M20658 24953 c6 -2 18 -2 25 0 6 3 1 5 -13 5 -14 0 -19 -2 -12 -5z"/>
<path d="M22570 24930 c0 -5 5 -10 11 -10 5 0 7 5 4 10 -3 6 -8 10 -11 10 -2
0 -4 -4 -4 -10z"/>
<path d="M22600 24900 c0 -5 5 -10 11 -10 5 0 7 5 4 10 -3 6 -8 10 -11 10 -2
0 -4 -4 -4 -10z"/>
<path d="M22630 24870 c0 -5 6 -10 14 -10 7 0 35 -22 62 -48 54 -53 92 -75 75
-43 -6 10 -23 26 -38 36 -15 10 -32 24 -36 32 -4 7 -14 13 -21 13 -8 0 -16 7
-20 15 -6 17 -36 21 -36 5z"/>
<path d="M11910 24808 c-12 -13 -17 -24 -11 -26 11 -4 51 28 51 40 0 15 -19 8
-40 -14z"/>
<path d="M19513 24712 c-17 -2 -43 -14 -58 -28 -14 -13 -28 -24 -31 -24 -3 0
-40 -29 -82 -65 -147 -125 -167 -142 -252 -205 -47 -36 -92 -70 -100 -77 -118
-97 -473 -363 -485 -363 -3 0 -33 -19 -67 -43 -35 -24 -85 -59 -113 -78 -27
-19 -52 -36 -55 -39 -5 -6 -193 -134 -235 -160 -13 -8 -50 -33 -82 -54 -84
-56 -175 -115 -281 -182 -51 -33 -118 -78 -150 -101 -31 -23 -62 -43 -68 -43
-6 0 -27 -13 -45 -30 -19 -16 -37 -30 -41 -30 -4 0 -26 -12 -50 -27 -24 -16
-52 -33 -63 -40 -79 -47 -241 -148 -245 -152 -3 -4 -23 -19 -46 -34 -22 -15
-49 -35 -60 -45 -10 -10 -55 -42 -99 -72 -44 -30 -89 -62 -100 -73 -11 -10
-42 -34 -70 -53 -27 -19 -84 -59 -125 -89 -41 -30 -109 -78 -150 -107 -81 -57
-508 -376 -577 -432 -103 -82 -139 -113 -164 -136 -14 -14 -48 -43 -75 -65
-27 -22 -106 -89 -175 -150 -69 -60 -170 -146 -225 -189 -124 -100 -645 -623
-739 -742 -38 -49 -87 -107 -109 -129 -21 -22 -50 -56 -65 -75 -14 -19 -28
-37 -32 -40 -3 -3 -34 -43 -70 -90 -35 -47 -67 -86 -71 -88 -4 -2 -17 -20 -30
-40 -12 -20 -38 -57 -58 -82 -20 -25 -48 -63 -61 -85 -13 -22 -41 -65 -64 -96
-57 -80 -68 -96 -90 -134 -11 -18 -52 -87 -91 -152 -82 -136 -150 -257 -186
-328 -60 -117 -78 -154 -114 -230 -21 -44 -41 -82 -44 -85 -8 -7 -70 -138 -70
-147 0 -5 -32 -82 -71 -173 -39 -91 -84 -203 -99 -250 -16 -47 -43 -123 -60
-170 -18 -47 -34 -96 -37 -110 -2 -14 -8 -34 -12 -45 -15 -37 -32 -109 -61
-255 -16 -80 -36 -167 -45 -195 -28 -83 -63 -302 -85 -520 -5 -55 -15 -131
-22 -170 -15 -91 -15 -918 0 -957 6 -14 14 -77 18 -140 4 -62 10 -118 15 -124
5 -6 11 -37 14 -70 3 -32 12 -90 20 -129 43 -203 77 -352 84 -365 5 -9 12 -31
16 -50 4 -19 14 -57 22 -85 8 -27 21 -75 30 -105 45 -154 99 -306 115 -324 4
-6 8 -18 8 -28 0 -22 15 -57 111 -253 79 -161 162 -319 178 -339 5 -6 20 -31
33 -56 58 -104 168 -273 323 -500 55 -80 179 -236 260 -325 19 -22 58 -67 85
-100 82 -99 524 -531 680 -665 133 -114 196 -170 240 -210 8 -8 56 -51 105
-94 140 -124 392 -375 443 -441 25 -33 51 -64 58 -70 18 -16 136 -172 172
-228 39 -61 132 -247 132 -264 0 -7 6 -27 14 -45 8 -18 22 -60 31 -93 10 -33
22 -71 27 -85 4 -14 13 -54 18 -90 41 -277 68 -431 85 -480 42 -117 138 -257
223 -328 54 -44 137 -92 161 -92 9 0 29 -7 45 -15 40 -21 243 -21 270 0 11 8
26 15 33 15 22 0 95 58 120 95 90 133 85 278 -17 440 -44 71 -60 147 -66 315
-8 217 20 443 67 548 16 34 29 64 29 66 0 2 18 36 40 76 22 40 40 77 40 82 0
13 105 189 127 213 10 11 30 38 45 60 34 51 83 102 183 190 44 39 96 84 115
102 74 67 300 221 415 283 118 64 161 88 195 108 19 12 58 32 85 46 69 35 175
94 205 114 32 21 98 59 130 75 14 6 27 15 30 19 3 4 17 12 30 18 14 5 48 24
75 41 28 16 62 35 78 40 15 6 27 15 27 20 0 5 6 9 14 9 8 0 21 6 28 12 8 7 29
21 48 32 70 37 106 58 135 77 17 10 37 22 45 26 8 3 31 16 50 28 19 12 62 36
95 54 183 100 561 349 653 431 10 8 31 24 47 34 34 22 224 164 241 180 6 6 83
78 170 161 207 195 389 377 439 440 22 28 42 52 45 55 9 8 152 189 201 255 45
59 128 185 183 275 15 25 31 52 36 60 98 158 270 485 270 513 0 7 7 22 15 33
8 10 15 27 15 36 0 10 6 32 14 50 25 60 61 160 80 228 73 254 109 403 141 595
7 44 19 100 25 125 19 75 52 337 60 480 17 302 7 874 -19 1020 -10 57 -31 234
-61 510 -5 47 -14 105 -19 130 -17 75 -31 161 -42 240 -5 41 -14 79 -19 84 -6
6 -10 27 -10 49 0 21 -12 79 -26 130 -32 111 -52 197 -62 257 -4 25 -12 52
-17 60 -5 8 -12 35 -16 60 -4 25 -12 59 -18 75 -5 17 -18 66 -27 110 -9 44
-20 89 -24 100 -5 11 -14 43 -20 70 -28 123 -36 151 -42 161 -4 6 -9 27 -12
47 -2 20 -12 46 -20 59 -9 12 -16 36 -16 53 0 17 -4 35 -9 40 -9 11 -35 92
-46 145 -4 19 -11 40 -15 45 -4 6 -11 31 -14 57 -4 26 -11 50 -17 53 -5 4 -9
16 -9 28 0 12 -7 35 -15 51 -8 15 -15 37 -15 48 0 11 -6 32 -14 46 -19 35 -73
188 -81 229 -4 18 -11 35 -16 38 -5 4 -9 16 -9 28 0 13 -6 31 -14 42 -7 11
-16 31 -19 45 -3 14 -19 63 -37 110 -18 47 -38 103 -44 125 -7 22 -17 51 -23
65 -14 35 -33 89 -43 125 -12 45 -56 168 -69 195 -4 8 -15 42 -25 75 -9 33
-22 74 -27 90 -6 17 -14 47 -19 68 -4 21 -13 44 -19 50 -6 6 -11 22 -11 35 0
13 -7 36 -14 50 -29 52 -76 164 -76 179 0 8 -6 27 -13 41 -8 15 -21 42 -30 60
-9 19 -17 41 -17 51 0 9 -7 26 -15 37 -8 10 -15 25 -15 33 0 7 -13 41 -28 75
-54 115 -62 134 -62 148 0 7 -7 22 -15 32 -8 11 -15 28 -15 37 0 10 -7 30 -14
46 -8 15 -33 75 -56 133 -42 106 -57 144 -84 203 -8 17 -29 64 -46 102 -16 39
-37 83 -45 98 -8 16 -15 39 -15 52 0 12 -7 28 -15 35 -8 7 -15 21 -15 32 0 11
-7 26 -15 34 -8 9 -15 24 -15 33 0 10 -7 24 -15 31 -8 7 -15 20 -15 30 0 10
-13 45 -30 78 -16 34 -30 67 -30 74 0 7 -7 22 -15 32 -8 11 -15 30 -15 43 0
13 -4 23 -10 23 -5 0 -10 7 -10 16 0 15 -14 50 -67 164 -43 94 -77 178 -88
218 -4 12 -11 22 -16 22 -5 0 -9 9 -9 21 0 11 -7 33 -14 47 -8 15 -23 45 -32
67 -40 95 -58 127 -89 160 -35 35 -57 39 -162 27z m-458 -3985 c50 -30 164
-102 254 -159 231 -146 490 -307 601 -375 123 -75 235 -185 288 -283 20 -37
49 -126 67 -204 14 -60 15 -139 9 -640 -4 -398 -3 -579 4 -598 6 -15 24 -34
39 -41 35 -18 153 -37 232 -37 33 0 62 -4 65 -9 10 -15 -3 -35 -32 -53 -15 -9
-80 -52 -144 -95 -65 -43 -188 -123 -273 -178 -86 -55 -230 -149 -321 -208
-242 -159 -336 -217 -352 -217 -7 0 -37 18 -65 39 -29 22 -113 86 -188 143
-196 148 -542 422 -642 508 -29 25 -65 55 -81 67 -25 20 -27 25 -15 39 12 14
28 15 115 10 122 -9 181 3 188 37 3 12 8 123 11 247 18 681 21 769 37 1100 7
135 12 360 11 500 -1 258 -3 276 -50 487 -3 13 -3 30 1 38 5 14 17 10 78 -23
40 -21 114 -64 163 -95z m-3954 -997 c61 -38 113 -70 117 -70 3 0 13 -6 21
-14 21 -18 94 -59 216 -121 159 -81 414 -231 489 -289 37 -27 38 -31 33 -75
-3 -25 -10 -86 -16 -136 -6 -49 -17 -171 -26 -270 -8 -99 -20 -232 -25 -295
-5 -63 -15 -182 -21 -264 -9 -139 -19 -186 -37 -186 -4 0 -18 19 -32 42 -14
23 -35 56 -47 75 -13 19 -23 38 -23 42 0 5 -18 21 -40 36 -37 26 -44 27 -78
17 -41 -13 -246 -113 -333 -164 -31 -18 -87 -51 -125 -72 -38 -22 -127 -74
-199 -116 -71 -42 -150 -87 -175 -101 -25 -13 -88 -48 -140 -78 -52 -30 -153
-88 -225 -129 -231 -132 -337 -198 -465 -291 -43 -31 -53 -40 -136 -116 -36
-33 -74 -63 -85 -67 -27 -10 -27 -7 11 787 6 116 12 278 15 360 10 306 18 349
87 480 65 123 178 247 266 293 92 48 176 90 192 96 8 3 22 10 30 15 8 5 96 48
195 96 99 47 194 93 210 102 172 92 253 137 268 150 24 22 21 66 -9 148 -14
39 -29 82 -34 96 -4 14 -13 36 -19 48 -13 24 -7 41 15 41 8 0 65 -31 125 -70z
m5486 -132 c-3 -7 -5 -2 -5 12 0 14 2 19 5 13 2 -7 2 -19 0 -25z m0 -165 c-2
-27 -3 -5 -3 47 0 52 1 74 3 48 2 -27 2 -69 0 -95z m-2222 27 c-3 -5 -10 -10
-16 -10 -5 0 -9 5 -9 10 0 6 7 10 16 10 8 0 12 -4 9 -10z m-68 -26 c-3 -3 -12
-4 -19 -1 -8 3 -5 6 6 6 11 1 17 -2 13 -5z m-54 -31 c-7 -2 -19 -2 -25 0 -7 3
-2 5 12 5 14 0 19 -2 13 -5z m-56 -29 c-3 -3 -12 -4 -19 -1 -8 3 -5 6 6 6 11
1 17 -2 13 -5z m-1920 -106 c-2 -18 -4 -6 -4 27 0 33 2 48 4 33 2 -15 2 -42 0
-60z m4320 35 c-3 -10 -5 -4 -5 12 0 17 2 24 5 18 2 -7 2 -21 0 -30z m-2637
-43 c0 -5 -4 -10 -10 -10 -5 0 -10 5 -10 10 0 6 5 10 10 10 6 0 10 -4 10 -10z
m-53 -36 c-3 -3 -12 -4 -19 -1 -8 3 -5 6 6 6 11 1 17 -2 13 -5z m-62 -24 c3
-5 -1 -10 -10 -10 -9 0 -13 5 -10 10 3 6 8 10 10 10 2 0 7 -4 10 -10z m-215
-120 c0 -5 -2 -10 -4 -10 -3 0 -8 5 -11 10 -3 6 -1 10 4 10 6 0 11 -4 11 -10z
m-55 -30 c-3 -5 -10 -10 -16 -10 -5 0 -9 5 -9 10 0 6 7 10 16 10 8 0 12 -4 9
-10z m-58 -26 c-3 -3 -12 -4 -19 -1 -8 3 -5 6 6 6 11 1 17 -2 13 -5z m-160
-90 c-3 -3 -12 -4 -19 -1 -8 3 -5 6 6 6 11 1 17 -2 13 -5z m-70 -30 c-3 -3
-12 -4 -19 -1 -8 3 -5 6 6 6 11 1 17 -2 13 -5z m-60 -30 c-3 -3 -12 -4 -19 -1
-8 3 -5 6 6 6 11 1 17 -2 13 -5z m-980 -86 c-3 -8 -6 -5 -6 6 -1 11 2 17 5 13
3 -3 4 -12 1 -19z m-30 -335 c-2 -16 -4 -3 -4 27 0 30 2 43 4 28 2 -16 2 -40
0 -55z m4950 -109 c-3 -3 -12 -4 -19 -1 -8 3 -5 6 6 6 11 1 17 -2 13 -5z
m-387 -234 c0 -5 -4 -10 -10 -10 -5 0 -10 5 -10 10 0 6 5 10 10 10 6 0 10 -4
10 -10z m-43 -26 c-3 -3 -12 -4 -19 -1 -8 3 -5 6 6 6 11 1 17 -2 13 -5z
m-2107 -154 c0 -5 -2 -10 -4 -10 -3 0 -8 5 -11 10 -3 6 -1 10 4 10 6 0 11 -4
11 -10z m35 -20 c3 -5 -1 -10 -10 -10 -9 0 -13 5 -10 10 3 6 8 10 10 10 2 0 7
-4 10 -10z m1760 -30 c3 -5 1 -10 -4 -10 -6 0 -11 5 -11 10 0 6 2 10 4 10 3 0
8 -4 11 -10z m-4848 -36 c-3 -3 -12 -4 -19 -1 -8 3 -5 6 6 6 11 1 17 -2 13 -5z
m4763 -24 c0 -5 -7 -10 -16 -10 -8 0 -12 5 -9 10 3 6 10 10 16 10 5 0 9 -4 9
-10z m-4823 -6 c-3 -3 -12 -4 -19 -1 -8 3 -5 6 6 6 11 1 17 -2 13 -5z m3298
-24 c3 -5 -1 -10 -9 -10 -9 0 -16 5 -16 10 0 6 4 10 9 10 6 0 13 -4 16 -10z
m1485 0 c0 -5 -5 -10 -11 -10 -5 0 -7 5 -4 10 3 6 8 10 11 10 2 0 4 -4 4 -10z
m-50 -30 c0 -5 -4 -10 -10 -10 -5 0 -10 5 -10 10 0 6 5 10 10 10 6 0 10 -4 10
-10z m-5020 -84 c0 -3 -4 -8 -10 -11 -5 -3 -10 -1 -10 4 0 6 5 11 10 11 6 0
10 -2 10 -4z m-47 -33 c-7 -2 -19 -2 -25 0 -7 3 -2 5 12 5 14 0 19 -2 13 -5z
m3807 3 c0 -3 -4 -8 -10 -11 -5 -3 -10 -1 -10 4 0 6 5 11 10 11 6 0 10 -2 10
-4z m-3855 -36 c-3 -5 -12 -10 -20 -10 -8 0 -17 5 -20 10 -4 6 5 10 20 10 15
0 24 -4 20 -10z m-63 -32 c-9 -9 -15 -9 -24 0 -9 9 -7 12 12 12 19 0 21 -3 12
-12z m4918 8 c0 -3 -4 -8 -10 -11 -5 -3 -10 -1 -10 4 0 6 5 11 10 11 6 0 10
-2 10 -4z m-4960 -30 c0 -9 -30 -14 -35 -6 -4 6 3 10 14 10 12 0 21 -2 21 -4z
m-73 -32 c-3 -3 -12 -4 -19 -1 -8 3 -5 6 6 6 11 1 17 -2 13 -5z m4943 2 c0 -3
-4 -8 -10 -11 -5 -3 -10 -1 -10 4 0 6 5 11 10 11 6 0 10 -2 10 -4z m-33 -32
c-3 -3 -12 -4 -19 -1 -8 3 -5 6 6 6 11 1 17 -2 13 -5z m-47 -28 c0 -9 -30 -14
-35 -6 -4 6 3 10 14 10 12 0 21 -2 21 -4z m-190 -116 c0 -5 -8 -10 -17 -10
-15 0 -16 2 -3 10 19 12 20 12 20 0z m-53 -36 c-3 -3 -12 -4 -19 -1 -8 3 -5 6
6 6 11 1 17 -2 13 -5z m-57 -24 c0 -5 -20 -10 -45 -10 -25 0 -45 5 -45 10 0 6
20 10 45 10 25 0 45 -4 45 -10z m-923 -442 c-3 -8 -6 -5 -6 6 -1 11 2 17 5 13
3 -3 4 -12 1 -19z m1940 -325 c-2 -16 -4 -3 -4 27 0 30 2 43 4 28 2 -16 2 -40
0 -55z m-4141 -121 c-12 -11 -18 7 -10 30 l8 23 4 -23 c2 -13 1 -26 -2 -30z
m-26 -22 c0 -5 -5 -10 -11 -10 -5 0 -7 5 -4 10 3 6 8 10 11 10 2 0 4 -4 4 -10z
m4167 -112 c-2 -24 -4 -7 -4 37 0 44 2 63 4 43 2 -21 2 -57 0 -80z m-4200 60
c-3 -8 -6 -5 -6 6 -1 11 2 17 5 13 3 -3 4 -12 1 -19z m1735 -82 c1 -20 -2 -39
-5 -43 -4 -3 -7 15 -7 42 0 55 10 56 12 1z m-1792 -6 c0 -5 -5 -10 -11 -10 -5
0 -7 5 -4 10 3 6 8 10 11 10 2 0 4 -4 4 -10z m1757 -82 c-3 -8 -6 -5 -6 6 -1
11 2 17 5 13 3 -3 4 -12 1 -19z m-1850 -70 c-3 -8 -6 -5 -6 6 -1 11 2 17 5 13
3 -3 4 -12 1 -19z m1713 -188 c0 -5 -4 -10 -10 -10 -5 0 -10 5 -10 10 0 6 5
10 10 10 6 0 10 -4 10 -10z m-4089 -53 c-1 -12 -15 -9 -19 4 -3 6 1 10 8 8 6
-3 11 -8 11 -12z m4059 3 c0 -5 -4 -10 -10 -10 -5 0 -10 5 -10 10 0 6 5 10 10
10 6 0 10 -4 10 -10z m-354 -15 c4 -9 -16 -54 -45 -104 -28 -49 -51 -96 -51
-105 0 -40 34 -72 140 -130 32 -17 79 -47 270 -171 61 -39 218 -137 258 -160
9 -6 44 -28 77 -49 33 -22 123 -74 200 -116 77 -43 194 -110 260 -150 168
-102 238 -139 409 -215 137 -61 305 -115 359 -115 13 0 31 -6 40 -13 15 -11 0
-21 -118 -82 -200 -104 -222 -115 -319 -170 -49 -27 -109 -61 -135 -75 -83
-44 -344 -190 -396 -222 -16 -10 -37 -21 -45 -25 -8 -3 -51 -27 -95 -51 -190
-108 -270 -132 -435 -132 -168 0 -246 28 -480 173 -217 135 -289 180 -435 271
-82 52 -179 112 -214 135 -97 62 -102 60 -202 -70 -46 -61 -91 -120 -100 -131
-9 -13 -22 -19 -31 -15 -13 5 -17 39 -22 214 -3 114 -10 278 -15 363 -5 85
-10 263 -10 396 -1 219 0 242 16 256 20 17 173 98 268 140 33 15 96 43 140 63
44 20 123 54 177 75 53 22 144 62 202 90 106 50 268 123 296 133 25 9 30 8 36
-8z m320 -52 c-10 -10 -19 5 -10 18 6 11 8 11 12 0 2 -7 1 -15 -2 -18z m-3876
-53 c0 -5 -2 -10 -4 -10 -3 0 -8 5 -11 10 -3 6 -1 10 4 10 6 0 11 -4 11 -10z
m43 -27 c-7 -2 -19 -2 -25 0 -7 3 -2 5 12 5 14 0 19 -2 13 -5z m47 -33 c0 -5
-4 -10 -10 -10 -5 0 -10 5 -10 10 0 6 5 10 10 10 6 0 10 -4 10 -10z m6457
-167 c-2 -32 -3 -6 -3 57 0 63 1 89 3 58 2 -32 2 -84 0 -115z m-6402 137 c-3
-5 -12 -7 -20 -3 -21 7 -19 13 6 13 11 0 18 -4 14 -10z m45 -24 c0 -2 -7 -6
-15 -10 -8 -3 -15 -1 -15 4 0 6 7 10 15 10 8 0 15 -2 15 -4z m50 -30 c0 -11
-19 -15 -25 -6 -3 5 1 10 9 10 9 0 16 -2 16 -4z m43 -33 c-7 -2 -19 -2 -25 0
-7 3 -2 5 12 5 14 0 19 -2 13 -5z m41 -34 c-3 -5 -10 -7 -15 -3 -5 3 -7 10 -3
15 3 5 10 7 15 3 5 -3 7 -10 3 -15z m196 -115 c0 -2 -7 -4 -15 -4 -8 0 -15 4
-15 10 0 5 7 7 15 4 8 -4 15 -8 15 -10z m237 -140 c-3 -3 -12 -4 -19 -1 -8 3
-5 6 6 6 11 1 17 -2 13 -5z m5760 -66 c-2 -13 -4 -3 -4 22 0 25 2 35 4 23 2
-13 2 -33 0 -45z m-5667 2 c0 -5 -2 -10 -4 -10 -3 0 -8 5 -11 10 -3 6 -1 10 4
10 6 0 11 -4 11 -10z m43 -27 c-7 -2 -19 -2 -25 0 -7 3 -2 5 12 5 14 0 19 -2
13 -5z m94 -59 c-3 -3 -12 -4 -19 -1 -8 3 -5 6 6 6 11 1 17 -2 13 -5z m5500
-26 c-3 -7 -5 -2 -5 12 0 14 2 19 5 13 2 -7 2 -19 0 -25z m-5400 -34 c-3 -3
-12 -4 -19 -1 -8 3 -5 6 6 6 11 1 17 -2 13 -5z m140 -90 c-3 -3 -12 -4 -19 -1
-8 3 -5 6 6 6 11 1 17 -2 13 -5z m38 -24 c3 -5 1 -10 -4 -10 -6 0 -11 5 -11
10 0 6 2 10 4 10 3 0 8 -4 11 -10z m145 -60 c0 -5 -4 -10 -10 -10 -5 0 -10 5
-10 10 0 6 5 10 10 10 6 0 10 -4 10 -10z m4240 -644 c0 -11 -19 -15 -25 -6 -3
5 1 10 9 10 9 0 16 -2 16 -4z m-60 -30 c0 -11 -19 -15 -25 -6 -3 5 1 10 9 10
9 0 16 -2 16 -4z m-47 -33 c-7 -2 -19 -2 -25 0 -7 3 -2 5 12 5 14 0 19 -2 13
-5z m-216 -119 c-3 -3 -12 -4 -19 -1 -8 3 -5 6 6 6 11 1 17 -2 13 -5z m-60
-30 c-3 -3 -12 -4 -19 -1 -8 3 -5 6 6 6 11 1 17 -2 13 -5z m-2487 -23 c0 -5
-13 -16 -30 -25 -16 -8 -30 -10 -30 -5 0 5 5 9 10 9 6 0 10 7 10 15 0 8 9 15
20 15 11 0 20 -4 20 -9z m2450 -1 c0 -5 -5 -10 -11 -10 -5 0 -7 5 -4 10 3 6 8
10 11 10 2 0 4 -4 4 -10z m-2410 -30 c0 -5 -5 -10 -11 -10 -5 0 -7 5 -4 10 3
6 8 10 11 10 2 0 4 -4 4 -10z m2350 0 c0 -5 -4 -10 -10 -10 -5 0 -10 5 -10 10
0 6 5 10 10 10 6 0 10 -4 10 -10z m-2295 -30 c3 -5 -3 -10 -14 -10 -12 0 -21
5 -21 10 0 6 6 10 14 10 8 0 18 -4 21 -10z m-178 -32 c-3 -8 -6 -5 -6 6 -1 11
2 17 5 13 3 -3 4 -12 1 -19z m223 2 c0 -5 -7 -10 -15 -10 -8 0 -15 5 -15 10 0
6 7 10 15 10 8 0 15 -4 15 -10z m50 -30 c0 -5 -4 -10 -9 -10 -6 0 -13 5 -16
10 -3 6 1 10 9 10 9 0 16 -4 16 -10z m40 -30 c0 -5 -7 -10 -15 -10 -8 0 -15 5
-15 10 0 6 7 10 15 10 8 0 15 -4 15 -10z m50 -30 c0 -5 -4 -10 -10 -10 -5 0
-10 5 -10 10 0 6 5 10 10 10 6 0 10 -4 10 -10z m1850 6 c0 -3 -4 -8 -10 -11
-5 -3 -10 -1 -10 4 0 6 5 11 10 11 6 0 10 -2 10 -4z m-1800 -36 c0 -13 -11
-13 -30 0 -12 8 -11 10 8 10 12 0 22 -4 22 -10z m42 -32 c-9 -9 -15 -9 -24 0
-9 9 -7 12 12 12 19 0 21 -3 12 -12z m48 -28 c0 -5 -2 -10 -4 -10 -3 0 -8 5
-11 10 -3 6 -1 10 4 10 6 0 11 -4 11 -10z m1547 4 c-3 -3 -12 -4 -19 -1 -8 3
-5 6 6 6 11 1 17 -2 13 -5z m-1497 -28 c0 -9 -30 -14 -35 -6 -4 6 3 10 14 10
12 0 21 -2 21 -4z m-720 -31 c0 -8 -4 -15 -10 -15 -5 0 -10 7 -10 15 0 8 5 15
10 15 6 0 10 -7 10 -15z m770 1 c0 -11 -19 -15 -25 -6 -3 5 1 10 9 10 9 0 16
-2 16 -4z m-800 -40 c0 -8 -4 -18 -10 -21 -5 -3 -10 3 -10 14 0 12 5 21 10 21
6 0 10 -6 10 -14z m843 7 c-7 -2 -19 -2 -25 0 -7 3 -2 5 12 5 14 0 19 -2 13
-5z m47 -27 c0 -11 -19 -15 -25 -6 -3 5 1 10 9 10 9 0 16 -2 16 -4z m1147 -2
c-3 -3 -12 -4 -19 -1 -8 3 -5 6 6 6 11 1 17 -2 13 -5z m-2071 -41 c-11 -11
-19 6 -11 24 8 17 8 17 12 0 3 -10 2 -21 -1 -24z m971 11 c-3 -3 -12 -4 -19
-1 -8 3 -5 6 6 6 11 1 17 -2 13 -5z m1046 -1 c-7 -2 -19 -2 -25 0 -7 3 -2 5
12 5 14 0 19 -2 13 -5z m-988 -23 c3 -5 -1 -10 -10 -10 -9 0 -13 5 -10 10 3 6
8 10 10 10 2 0 7 -4 10 -10z m-1055 -15 c0 -8 -4 -15 -10 -15 -5 0 -10 7 -10
15 0 8 5 15 10 15 6 0 10 -7 10 -15z m1130 -15 c12 -8 11 -10 -7 -10 -13 0
-23 5 -23 10 0 13 11 13 30 0z m797 -6 c-3 -3 -12 -4 -19 -1 -8 3 -5 6 6 6 11
1 17 -2 13 -5z m-1957 -24 c0 -5 -4 -10 -10 -10 -5 0 -10 5 -10 10 0 6 5 10
10 10 6 0 10 -4 10 -10z m1245 0 c4 -6 -7 -10 -24 -10 -17 0 -31 5 -31 10 0 6
11 10 24 10 14 0 28 -4 31 -10z m640 0 c3 -5 -1 -10 -9 -10 -9 0 -16 5 -16 10
0 6 4 10 9 10 6 0 13 -4 16 -10z m-1915 -30 c0 -5 -7 -10 -16 -10 -8 0 -12 5
-9 10 3 6 10 10 16 10 5 0 9 -4 9 -10z m1395 0 c4 -6 -10 -10 -34 -10 -22 0
-43 5 -46 10 -4 6 10 10 34 10 22 0 43 -4 46 -10z m425 0 c0 -5 -18 -10 -41
-10 -24 0 -38 4 -34 10 3 6 22 10 41 10 19 0 34 -4 34 -10z m-1870 -30 c0 -5
-11 -10 -25 -10 -14 0 -25 5 -25 10 0 6 11 10 25 10 14 0 25 -4 25 -10z m1625
0 c-3 -5 -10 -10 -16 -10 -5 0 -9 5 -9 10 0 6 7 10 16 10 8 0 12 -4 9 -10z"/>
<path d="M11667 24614 c-4 -4 -4 -10 -1 -15 6 -10 34 0 34 12 0 10 -24 12 -33
3z"/>
<path d="M12915 24610 c-3 -5 -1 -10 6 -10 7 0 21 -8 32 -17 15 -15 38 -18
119 -18 83 0 102 3 112 18 7 9 19 17 25 17 7 0 9 5 6 10 -5 8 -12 7 -22 -1
-24 -21 -172 -24 -217 -5 -45 19 -53 19 -61 6z"/>
<path d="M22966 24588 c39 -45 49 -55 67 -61 29 -11 19 12 -20 48 -43 40 -78
49 -47 13z"/>
<path d="M21480 24580 c0 -5 15 -10 33 -9 27 0 29 2 12 9 -28 12 -45 12 -45 0z"/>
<path d="M21760 24580 c-12 -8 -9 -10 13 -10 15 0 27 5 27 10 0 13 -20 13 -40
0z"/>
<path d="M11610 24550 c0 -5 5 -10 10 -10 6 0 10 5 10 10 0 6 -4 10 -10 10 -5
0 -10 -4 -10 -10z"/>
<path d="M21603 24543 c26 -2 67 -2 90 0 23 2 2 3 -48 3 -49 0 -68 -1 -42 -3z"/>
<path d="M23064 24499 c-4 -8 4 -21 22 -36 16 -14 42 -36 58 -49 15 -13 30
-24 32 -24 2 0 14 -10 27 -22 63 -61 110 -99 114 -94 3 2 -13 24 -36 47 -23
24 -41 47 -41 51 0 4 -7 8 -15 8 -9 0 -18 7 -21 15 -4 8 -11 15 -16 15 -6 0
-21 10 -33 23 -60 62 -83 79 -91 66z"/>
<path d="M11380 24354 c-19 -19 -37 -34 -42 -34 -4 0 -12 -9 -18 -20 -15 -27
2 -25 34 5 15 14 30 25 33 25 6 0 66 50 61 51 -27 6 -39 1 -68 -27z"/>
<path d="M23395 24190 c3 -5 8 -10 11 -10 2 0 4 5 4 10 0 6 -5 10 -11 10 -5 0
-7 -4 -4 -10z"/>
<path d="M23420 24168 c0 -7 18 -30 40 -51 28 -26 40 -32 40 -21 0 14 -63 84
-75 84 -3 0 -5 -6 -5 -12z"/>
<path d="M11182 24158 c-15 -15 -16 -28 -2 -28 6 0 10 6 10 14 0 8 6 17 13 19
6 3 7 6 2 6 -6 1 -16 -4 -23 -11z"/>
<path d="M11110 24080 c0 -5 5 -10 10 -10 6 0 10 5 10 10 0 6 -4 10 -10 10 -5
0 -10 -4 -10 -10z"/>
<path d="M22605 23960 c-3 -5 -2 -10 4 -10 5 0 13 5 16 10 3 6 2 10 -4 10 -5
0 -13 -4 -16 -10z"/>
<path d="M23610 23966 c0 -2 7 -9 15 -16 12 -10 15 -10 15 4 0 9 -7 16 -15 16
-8 0 -15 -2 -15 -4z"/>
<path d="M22310 23938 c0 -22 81 -48 147 -48 59 0 132 24 133 43 0 12 -24 7
-45 -8 -22 -18 -102 -12 -167 11 -50 17 -68 18 -68 2z"/>
<path d="M10952 23920 c-17 -28 -15 -32 8 -18 11 7 20 18 20 25 0 19 -14 16
-28 -7z"/>
<path d="M23650 23933 c0 -5 18 -27 40 -51 22 -24 40 -36 40 -29 0 8 -7 17
-15 21 -8 3 -15 12 -15 21 0 8 -7 15 -15 15 -8 0 -15 7 -15 15 0 8 -4 15 -10
15 -5 0 -10 -3 -10 -7z"/>
<path d="M23775 23780 c3 -5 8 -10 11 -10 2 0 4 5 4 10 0 6 -5 10 -11 10 -5 0
-7 -4 -4 -10z"/>
<path d="M10757 23710 c-3 -11 -2 -20 2 -20 3 0 12 9 19 20 10 16 10 20 -2 20
-7 0 -16 -9 -19 -20z"/>
<path d="M23828 23723 c7 -3 16 -2 19 1 4 3 -2 6 -13 5 -11 0 -14 -3 -6 -6z"/>
<path d="M23860 23695 c0 -8 5 -15 10 -15 6 0 10 7 10 15 0 8 -4 15 -10 15 -5
0 -10 -7 -10 -15z"/>
<path d="M10725 23670 c-3 -5 -1 -10 4 -10 6 0 11 5 11 10 0 6 -2 10 -4 10 -3
0 -8 -4 -11 -10z"/>
<path d="M23890 23657 c0 -16 38 -53 46 -45 3 3 -2 13 -11 21 -8 9 -15 20 -15
26 0 6 -4 11 -10 11 -5 0 -10 -6 -10 -13z"/>
<path d="M24063 23450 c6 -11 15 -20 19 -20 12 0 -3 28 -18 34 -11 4 -12 2 -1
-14z"/>
<path d="M10501 23404 c0 -11 3 -14 6 -6 3 7 2 16 -1 19 -3 4 -6 -2 -5 -13z"/>
<path d="M23020 23270 c14 -11 34 -20 44 -20 11 0 28 -8 38 -17 16 -14 24 -15
51 -5 18 6 57 14 87 18 30 4 63 15 74 26 16 15 17 18 4 18 -9 0 -18 -6 -20
-12 -4 -10 -38 -13 -128 -13 -90 0 -124 3 -127 13 -3 6 -14 12 -26 12 -21 0
-21 -1 3 -20z"/>
<path d="M24360 23081 c0 -5 5 -13 10 -16 6 -3 10 -2 10 4 0 5 -4 13 -10 16
-5 3 -10 2 -10 -4z"/>
<path d="M10056 22814 c-8 -22 -7 -34 3 -34 12 0 21 39 11 45 -4 3 -11 -2 -14
-11z"/>
<path d="M24571 22784 c0 -11 3 -14 6 -6 3 7 2 16 -1 19 -3 4 -6 -2 -5 -13z"/>
<path d="M11026 22683 c-4 -18 -11 -33 -16 -33 -5 0 -11 -8 -15 -19 -8 -28
-175 -104 -175 -81 0 6 -17 10 -37 10 -21 1 -56 9 -78 20 -44 21 -65 25 -65
11 0 -17 67 -48 133 -61 60 -12 73 -12 122 4 30 9 55 21 55 27 0 5 7 9 15 9 8
0 15 7 15 15 0 8 7 15 15 15 8 0 15 5 15 12 0 6 7 19 16 29 9 10 14 29 12 46
l-4 28 -8 -32z"/>
<path d="M23975 22550 c-3 -5 1 -10 9 -10 9 0 16 5 16 10 0 6 -4 10 -9 10 -6
0 -13 -4 -16 -10z"/>
<path d="M9737 22527 c-11 -29 -9 -53 4 -40 6 6 9 21 7 34 -3 21 -4 22 -11 6z"/>
<path d="M23813 22493 c-17 -6 -16 -33 1 -33 21 0 67 26 59 33 -7 8 -42 8 -60
0z"/>
<path d="M9660 22400 c-21 -21 -26 -40 -11 -40 15 0 41 30 41 46 0 19 -6 18
-30 -6z"/>
<path d="M24811 22394 c0 -11 3 -14 6 -6 3 7 2 16 -1 19 -3 4 -6 -2 -5 -13z"/>
<path d="M9590 22274 c-19 -41 -43 -82 -52 -91 -10 -9 -18 -24 -18 -34 0 -10
-4 -21 -10 -24 -5 -3 -10 -21 -9 -38 l1 -32 10 28 c5 15 13 27 18 27 5 0 14
16 20 35 6 19 29 60 51 92 35 52 52 114 32 113 -5 0 -24 -34 -43 -76z"/>
<path d="M9640 22109 c0 -5 5 -7 10 -4 6 3 10 8 10 11 0 2 -4 4 -10 4 -5 0
-10 -5 -10 -11z"/>
<path d="M9458 22028 c-10 -10 -18 -24 -18 -32 0 -8 -7 -16 -15 -20 -8 -3 -15
-14 -15 -24 0 -11 -7 -25 -15 -32 -8 -7 -15 -26 -15 -43 0 -40 9 -30 60 66 42
81 50 118 18 85z"/>
<path d="M9356 21835 c-4 -11 -12 -27 -17 -35 -5 -8 -12 -22 -15 -30 -3 -8
-12 -29 -20 -47 -8 -17 -14 -38 -14 -46 0 -8 -7 -17 -15 -21 -8 -3 -15 -17
-15 -33 1 -26 2 -27 14 -10 8 10 20 38 27 63 7 24 17 44 21 44 4 0 8 7 8 15 0
8 9 24 21 36 14 14 19 30 17 52 -3 27 -5 29 -12 12z"/>
<path d="M10090 21731 c0 -6 6 -11 14 -11 8 0 16 -7 20 -15 3 -8 12 -15 19
-15 8 0 20 -7 27 -15 9 -11 33 -15 86 -15 41 0 74 4 74 9 0 4 -31 12 -70 15
-38 4 -72 11 -75 17 -4 5 -15 9 -26 9 -11 0 -31 7 -44 16 -15 10 -25 12 -25 5z"/>
<path d="M24185 21695 c11 -8 25 -18 31 -23 29 -25 173 -30 214 -7 14 8 33 17
43 21 9 3 17 10 17 15 0 14 -33 10 -54 -6 -27 -20 -155 -20 -203 0 -48 20 -76
20 -48 0z"/>
<path d="M9206 21521 c-5 -19 -15 -41 -22 -49 -8 -7 -14 -22 -14 -33 0 -20 -3
-28 -38 -96 -12 -23 -22 -52 -22 -63 0 -12 -7 -28 -15 -36 -8 -9 -15 -24 -15
-34 0 -10 -4 -22 -10 -25 -5 -3 -10 -21 -9 -38 l1 -32 9 33 c5 17 14 32 19 32
6 0 10 7 10 15 0 9 13 44 29 78 16 34 32 77 36 95 3 17 10 32 15 32 4 0 11 17
15 37 4 21 11 41 17 44 5 3 8 21 6 40 l-3 34 -9 -34z"/>
<path d="M9030 21083 c0 -18 2 -33 4 -33 9 0 13 39 5 51 -6 10 -9 4 -9 -18z"/>
<path d="M8992 20988 c-13 -35 -10 -43 13 -35 16 7 21 52 7 61 -4 3 -13 -9
-20 -26z"/>
<path d="M25012 20950 c0 -19 2 -27 5 -17 2 9 2 25 0 35 -3 9 -5 1 -5 -18z"/>
<path d="M8972 20919 c-1 -15 -9 -29 -17 -33 -10 -4 -15 -19 -14 -48 l1 -43
19 43 c12 25 19 56 16 75 -3 27 -4 28 -5 6z"/>
<path d="M10028 20905 c-6 -30 -3 -43 8 -33 3 4 4 19 2 35 l-3 28 -7 -30z"/>
<path d="M9995 20850 c-3 -5 -1 -10 4 -10 6 0 11 5 11 10 0 6 -2 10 -4 10 -3
0 -8 -4 -11 -10z"/>
<path d="M9620 20828 c0 -10 7 -18 15 -18 8 0 15 -6 15 -13 0 -18 56 -44 121
-57 58 -11 149 2 149 21 0 5 6 9 13 9 16 0 62 49 53 57 -3 4 -27 -8 -53 -27
-49 -34 -84 -40 -163 -27 -44 7 -132 44 -142 60 -5 8 -8 6 -8 -5z"/>
<path d="M8916 20793 c-3 -3 -6 -24 -6 -47 0 -37 1 -39 15 -20 8 10 15 29 15
41 0 23 -13 37 -24 26z"/>
<path d="M24935 20790 c-19 -8 -19 -9 3 -9 12 -1 22 4 22 9 0 6 -1 10 -2 9 -2
0 -12 -4 -23 -9z"/>
<path d="M24660 20759 c0 -5 5 -9 12 -9 6 0 19 -7 28 -15 8 -8 36 -15 60 -17
37 -3 45 0 48 16 4 17 0 18 -38 12 -23 -4 -47 -3 -54 2 -17 14 -56 21 -56 11z"/>
<path d="M24870 20760 c-24 -8 -23 -8 8 -9 17 -1 32 4 32 9 0 11 -5 11 -40 0z"/>
<path d="M8886 20685 c-9 -25 -7 -77 3 -70 14 8 24 66 13 77 -6 6 -12 3 -16
-7z"/>
<path d="M8851 20504 c0 -11 3 -14 6 -6 3 7 2 16 -1 19 -3 4 -6 -2 -5 -13z"/>
<path d="M8942 20410 c0 -14 2 -19 5 -12 2 6 2 18 0 25 -3 6 -5 1 -5 -13z"/>
<path d="M8795 20357 c-4 -10 -5 -21 -1 -24 10 -10 18 4 13 24 -4 17 -4 17
-12 0z"/>
<path d="M8741 20163 c0 -12 -7 -28 -15 -36 -18 -18 -33 -147 -17 -147 6 0 11
16 11 35 0 19 7 55 16 80 8 26 13 56 11 68 l-4 22 -2 -22z"/>
<path d="M25252 20035 c0 -16 2 -22 5 -12 2 9 2 23 0 30 -3 6 -5 -1 -5 -18z"/>
<path d="M8678 19905 c-6 -70 -4 -87 10 -69 4 5 5 38 2 74 l-5 65 -7 -70z"/>
<path d="M25248 19935 c-6 -30 -3 -43 8 -33 3 4 4 19 2 35 l-3 28 -7 -30z"/>
<path d="M25216 19881 c-4 -5 -2 -12 3 -15 5 -4 12 -2 15 3 4 5 2 12 -3 15 -5
4 -12 2 -15 -3z"/>
<path d="M9642 19855 c-6 -14 -16 -25 -22 -25 -5 0 -10 -7 -10 -15 0 -8 -5
-15 -11 -15 -6 0 -24 -9 -40 -21 -27 -19 -34 -19 -106 -9 -48 6 -93 20 -120
36 -24 13 -43 21 -43 16 0 -12 34 -42 48 -42 6 0 15 -6 19 -14 22 -38 142 -50
201 -20 39 19 102 91 102 116 0 24 -5 23 -18 -7z"/>
<path d="M24923 19813 c11 -3 35 -16 55 -29 20 -14 43 -22 51 -18 9 3 31 8 49
11 56 10 35 23 -38 23 -40 0 -70 4 -70 10 0 6 -15 9 -32 9 -19 -1 -25 -3 -15
-6z"/>
<path d="M25128 19813 c6 -2 18 -2 25 0 6 3 1 5 -13 5 -14 0 -19 -2 -12 -5z"/>
<path d="M8647 19721 c-4 -29 -6 -56 -2 -59 11 -12 16 8 13 59 l-3 54 -8 -54z"/>
<path d="M8622 19560 c0 -14 2 -19 5 -12 2 6 2 18 0 25 -3 6 -5 1 -5 -13z"/>
<path d="M8562 19240 c0 -14 2 -19 5 -12 2 6 2 18 0 25 -3 6 -5 1 -5 -13z"/>
<path d="M8532 19120 c0 -19 2 -27 5 -17 2 9 2 25 0 35 -3 9 -5 1 -5 -18z"/>
<path d="M8531 19054 c0 -11 3 -14 6 -6 3 7 2 16 -1 19 -3 4 -6 -2 -5 -13z"/>
<path d="M8518 19008 c-14 -11 -18 -32 -19 -128 -1 -76 -6 -120 -15 -130 -14
-17 -25 -370 -11 -370 4 0 7 17 7 38 1 20 3 60 5 87 2 28 7 84 10 125 3 41 10
98 15 125 5 28 9 86 9 131 1 44 6 85 12 91 6 6 9 18 7 27 -2 14 -6 15 -20 4z"/>
<path d="M9471 18854 c0 -11 3 -14 6 -6 3 7 2 16 -1 19 -3 4 -6 -2 -5 -13z"/>
<path d="M25195 18850 c3 -5 18 -10 33 -10 21 0 24 2 12 10 -20 13 -53 13 -45
0z"/>
<path d="M25270 18835 c10 -12 16 -13 29 -3 9 7 18 14 20 15 2 2 -10 3 -29 3
-28 0 -31 -2 -20 -15z"/>
<path d="M9422 18805 c-12 -12 -36 -25 -53 -29 -35 -7 -179 3 -194 14 -20 14
-55 18 -55 6 0 -25 104 -66 168 -66 80 0 172 45 172 85 0 20 -11 17 -38 -10z"/>
<path d="M8450 18355 c0 -9 5 -15 11 -13 6 2 11 8 11 13 0 5 -5 11 -11 13 -6
2 -11 -4 -11 -13z"/>
<path d="M8450 18281 c-12 -23 -14 -923 -2 -903 5 6 9 204 10 438 2 251 7 434
12 445 6 10 10 22 10 28 0 18 -19 12 -30 -8z"/>
<path d="M9377 17912 c-12 -101 -120 -182 -221 -167 -25 4 -49 11 -52 16 -6
10 -44 13 -44 3 0 -13 29 -32 78 -49 40 -15 55 -16 64 -7 7 7 23 12 35 12 38
0 133 76 133 106 0 8 4 14 9 14 14 0 18 32 12 80 l-7 45 -7 -53z"/>
<path d="M25190 17865 c0 -8 9 -19 20 -25 11 -6 20 -8 20 -5 0 3 -9 14 -20 25
-15 15 -20 16 -20 5z"/>
<path d="M25478 17843 c7 -3 16 -2 19 1 4 3 -2 6 -13 5 -11 0 -14 -3 -6 -6z"/>
<path d="M25250 17824 c0 -30 103 -47 113 -20 3 8 -1 17 -9 20 -21 8 -104 8
-104 0z"/>
<path d="M25385 17820 c-4 -6 7 -10 24 -10 17 0 31 5 31 10 0 6 -11 10 -24 10
-14 0 -28 -4 -31 -10z"/>
<path d="M8444 17339 c-3 -6 -1 -16 5 -22 8 -8 11 -5 11 11 0 24 -5 28 -16 11z"/>
<path d="M8472 17220 c0 -14 2 -19 5 -12 2 6 2 18 0 25 -3 6 -5 1 -5 -13z"/>
<path d="M8472 17090 c0 -19 2 -27 5 -17 2 9 2 25 0 35 -3 9 -5 1 -5 -18z"/>
<path d="M8471 16950 c0 -58 4 -112 9 -120 8 -12 10 -8 11 15 1 17 0 35 -1 40
-1 6 -2 36 -1 67 0 32 -4 68 -9 80 -6 16 -9 -8 -9 -82z"/>
<path d="M9442 16867 c-1 -40 -6 -59 -17 -63 -8 -3 -17 -15 -21 -26 -15 -47
-103 -97 -164 -92 -34 2 -130 33 -140 45 -8 9 -40 19 -40 13 0 -9 50 -46 89
-67 27 -15 51 -18 106 -15 39 2 77 9 85 15 74 60 90 77 90 92 0 9 5 22 11 28
5 5 8 36 6 69 l-3 59 -2 -58z"/>
<path d="M25480 16905 c0 -7 -6 -18 -13 -22 -21 -12 -29 -43 -12 -43 8 0 15 6
15 14 0 7 7 19 15 26 17 14 20 40 5 40 -5 0 -10 -7 -10 -15z"/>
<path d="M25148 16848 c5 -5 16 -8 23 -6 8 3 3 7 -10 11 -17 4 -21 3 -13 -5z"/>
<path d="M25235 16801 c21 -15 46 -21 82 -21 69 0 76 16 10 24 -28 3 -68 9
-87 12 l-35 6 30 -21z"/>
<path d="M8504 16670 c0 -52 1 -74 3 -47 2 26 2 68 0 95 -2 26 -3 4 -3 -48z"/>
<path d="M9587 15893 c-3 -27 -1 -52 4 -57 5 -6 9 12 9 47 0 31 -2 57 -4 57
-2 0 -6 -21 -9 -47z"/>
<path d="M24955 15850 c3 -5 8 -10 11 -10 2 0 4 5 4 10 0 6 -5 10 -11 10 -5 0
-7 -4 -4 -10z"/>
<path d="M24997 15811 c42 -39 100 -62 143 -55 66 11 46 31 -40 40 -24 3 -55
11 -67 19 -12 8 -30 15 -40 15 -15 0 -14 -2 4 -19z"/>
<path d="M25270 15820 c0 -5 5 -10 10 -10 6 0 10 5 10 10 0 6 -4 10 -10 10 -5
0 -10 -4 -10 -10z"/>
<path d="M9505 15735 c-16 -13 -40 -24 -53 -25 -13 0 -31 -4 -40 -9 -12 -6
-40 -2 -87 15 -39 13 -79 24 -89 24 -20 0 -20 0 0 -18 38 -36 86 -52 154 -52
48 0 71 4 80 15 7 8 16 15 21 15 14 0 51 40 47 51 -2 5 -16 -2 -33 -16z"/>
<path d="M8681 15674 c0 -11 3 -14 6 -6 3 7 2 16 -1 19 -3 4 -6 -2 -5 -13z"/>
<path d="M25055 14840 c-11 -17 -28 -33 -37 -36 -19 -6 -23 -16 -11 -27 8 -9
53 32 53 49 0 6 7 14 15 18 8 3 15 10 15 16 0 19 -15 10 -35 -20z"/>
<path d="M9850 14841 c0 -29 -53 -82 -96 -97 -21 -8 -58 -14 -81 -14 -44 0
-145 20 -153 30 -9 11 -42 20 -51 14 -11 -6 37 -41 95 -68 55 -26 143 -18 215
20 29 15 56 35 59 43 3 9 9 18 14 21 13 10 22 70 9 70 -6 0 -11 -8 -11 -19z"/>
<path d="M24735 14784 c32 -26 76 -42 135 -49 44 -5 63 -2 92 13 l37 19 -119
8 c-66 4 -122 11 -126 16 -3 5 -13 9 -22 9 -15 -1 -14 -3 3 -16z"/>
<path d="M10291 13883 c0 -13 -7 -23 -14 -23 -8 0 -19 -10 -26 -23 -18 -33
-67 -55 -141 -62 -48 -4 -72 -2 -94 10 -15 8 -33 15 -38 15 -6 0 -25 7 -44 16
-18 9 -39 14 -46 11 -8 -4 -7 -6 5 -6 9 -1 17 -7 17 -14 0 -23 128 -77 183
-77 54 0 187 75 187 106 0 7 5 14 11 16 6 2 9 15 6 28 -4 23 -4 24 -6 3z"/>
<path d="M24280 13864 c0 -12 55 -49 84 -58 17 -4 52 -10 79 -13 42 -4 47 -3
47 15 0 16 -9 20 -67 25 -38 3 -81 13 -98 21 -32 17 -45 20 -45 10z"/>
<path d="M24161 13124 c0 -11 3 -14 6 -6 3 7 2 16 -1 19 -3 4 -6 -2 -5 -13z"/>
<path d="M24130 13059 c0 -5 5 -7 10 -4 6 3 10 8 10 11 0 2 -4 4 -10 4 -5 0
-10 -5 -10 -11z"/>
<path d="M23780 13000 c0 -5 5 -10 11 -10 5 0 7 5 4 10 -3 6 -8 10 -11 10 -2
0 -4 -4 -4 -10z"/>
<path d="M24045 12998 c-16 -5 -76 -9 -132 -9 -57 0 -103 -4 -103 -9 0 -5 25
-16 55 -25 67 -19 150 -11 174 16 8 11 21 19 28 19 7 0 13 5 13 10 0 6 -1 10
-2 9 -2 0 -16 -5 -33 -11z"/>
<path d="M10762 12970 c0 -14 2 -19 5 -12 2 6 2 18 0 25 -3 6 -5 1 -5 -13z"/>
<path d="M10727 12926 c-4 -10 -5 -21 -2 -24 9 -9 17 6 13 25 -3 17 -4 17 -11
-1z"/>
<path d="M10380 12921 c0 -17 60 -60 98 -71 64 -17 162 -9 162 15 0 8 -17 11
-52 10 -50 -1 -140 18 -163 35 -19 13 -45 19 -45 11z"/>
<path d="M23510 12180 c0 -5 5 -10 10 -10 6 0 10 5 10 10 0 6 -4 10 -10 10 -5
0 -10 -4 -10 -10z"/>
<path d="M23485 12150 c-3 -5 -1 -10 4 -10 6 0 11 5 11 10 0 6 -2 10 -4 10 -3
0 -8 -4 -11 -10z"/>
<path d="M23200 12134 c75 -55 135 -67 183 -36 l27 19 -93 12 c-51 6 -104 14
-118 18 l-24 5 25 -18z"/>
<path d="M11050 12132 c0 -13 34 -41 76 -62 54 -28 144 -27 203 2 38 19 42 23
24 26 -12 2 -31 -2 -42 -7 -39 -21 -122 -13 -189 19 -70 33 -72 34 -72 22z"/>
<path d="M21220 12060 c0 -5 5 -10 10 -10 6 0 10 5 10 10 0 6 -4 10 -10 10 -5
0 -10 -4 -10 -10z"/>
<path d="M22810 11583 c0 -12 -7 -28 -15 -37 -8 -8 -15 -23 -15 -33 1 -16 2
-16 12 2 7 11 18 26 25 33 15 16 16 22 3 42 -8 12 -10 11 -10 -7z"/>
<path d="M22461 11455 c19 -13 40 -29 46 -35 18 -15 152 -18 161 -3 4 6 19 14
34 18 25 6 48 35 29 35 -5 0 -11 -5 -13 -11 -10 -29 -248 -17 -248 12 0 5 -10
9 -22 9 -19 0 -18 -3 13 -25z"/>
<path d="M11790 11389 c0 -15 20 -32 68 -57 48 -25 108 -29 137 -8 11 7 34 16
50 21 29 7 29 8 9 17 -16 7 -31 6 -58 -7 -43 -21 -84 -15 -151 20 -52 28 -55
29 -55 14z"/>
<path d="M21716 10786 c3 -9 26 -25 51 -36 42 -19 46 -19 99 -3 30 10 54 20
54 24 0 4 -35 9 -77 12 -43 3 -90 8 -106 12 -23 6 -26 5 -21 -9z"/>
<path d="M21938 10793 c6 -2 18 -2 25 0 6 3 1 5 -13 5 -14 0 -19 -2 -12 -5z"/>
<path d="M12646 10751 c23 -26 119 -50 136 -33 7 7 29 12 50 12 71 0 39 17
-44 24 -46 3 -100 9 -121 12 -39 6 -39 6 -21 -15z"/>
<path d="M12908 10763 c7 -3 16 -2 19 1 4 3 -2 6 -13 5 -11 0 -14 -3 -6 -6z"/>
<path d="M21136 10374 c-4 -9 -4 -19 -1 -22 2 -3 7 3 11 12 4 9 4 19 1 22 -2
3 -7 -3 -11 -12z"/>
<path d="M21088 10312 c-15 -18 -32 -32 -39 -32 -7 0 -20 -6 -28 -14 -20 -17
-120 -36 -127 -25 -3 5 -19 9 -35 9 -16 0 -46 7 -66 15 -44 18 -52 14 -25 -15
20 -22 106 -50 154 -50 66 0 204 89 196 127 -2 13 -8 11 -30 -15z"/>
<path d="M20720 10300 c0 -5 5 -10 11 -10 5 0 7 5 4 10 -3 6 -8 10 -11 10 -2
0 -4 -4 -4 -10z"/>
<path d="M13522 10238 c7 -21 97 -77 134 -84 20 -4 40 -2 45 3 15 15 -17 43
-48 43 -14 0 -47 11 -75 25 -57 29 -61 30 -56 13z"/>
<path d="M20121 9874 c-27 -28 -120 -58 -176 -55 -22 0 -65 10 -94 21 -30 11
-57 17 -60 15 -2 -3 1 -5 7 -5 7 0 12 -6 12 -12 0 -7 20 -22 43 -33 85 -40
243 -12 284 51 26 41 17 52 -16 18z"/>
<path d="M14845 9860 c-3 -5 -1 -10 4 -10 6 0 11 5 11 10 0 6 -2 10 -4 10 -3
0 -8 -4 -11 -10z"/>
<path d="M14490 9836 c0 -31 90 -76 154 -76 75 0 196 44 196 71 0 14 -52 2
-62 -14 -11 -17 -203 -12 -231 6 -36 23 -57 28 -57 13z"/>
<path d="M19130 9619 c0 -5 5 -7 10 -4 6 3 10 8 10 11 0 2 -4 4 -10 4 -5 0
-10 -5 -10 -11z"/>
<path d="M19080 9580 c0 -5 -6 -10 -14 -10 -8 0 -16 -6 -19 -13 -8 -22 -72
-47 -119 -47 -23 0 -73 11 -110 24 -85 28 -93 11 -15 -34 41 -24 60 -30 87
-25 19 3 53 8 74 10 41 5 74 22 114 58 23 21 30 47 12 47 -5 0 -10 -4 -10 -10z"/>
<path d="M15517 9552 c10 -10 35 -29 56 -41 35 -21 45 -23 115 -16 42 4 70 10
62 12 -8 2 -25 9 -37 15 -12 6 -30 8 -39 4 -20 -8 -134 23 -134 36 0 4 -9 8
-20 8 -20 0 -20 -1 -3 -18z"/>
<path d="M17991 9498 c0 -10 -4 -18 -9 -18 -4 0 -19 -11 -34 -25 -14 -13 -39
-27 -55 -31 -15 -4 -33 -11 -40 -16 -6 -5 -51 -8 -99 -7 -91 2 -125 -13 -62
-26 18 -4 38 -12 45 -17 14 -11 71 -5 131 14 49 16 136 101 129 127 -4 14 -5
13 -6 -1z"/>
<path d="M16951 9451 c-9 -6 -10 -11 -2 -15 13 -8 31 1 31 15 0 11 -11 11 -29
0z"/>
<path d="M16580 9421 c0 -6 7 -11 15 -11 8 0 15 -6 15 -13 0 -25 67 -50 137
-50 53 -1 81 5 125 26 31 14 59 31 63 36 9 16 -24 13 -40 -2 -8 -8 -46 -16
-90 -20 -74 -5 -128 4 -207 38 -11 4 -18 3 -18 -4z"/>
<path d="M17635 9420 c-3 -5 1 -10 10 -10 9 0 13 5 10 10 -3 6 -8 10 -10 10
-2 0 -7 -4 -10 -10z"/>
<path d="M26785 6150 c-135 -19 -276 -69 -398 -142 -69 -42 -109 -80 -165
-158 -25 -36 -48 -67 -52 -70 -3 -3 -20 -35 -38 -71 -70 -145 -70 -422 0 -549
28 -50 80 -122 118 -161 24 -25 106 -89 114 -89 4 0 22 -11 39 -24 37 -28 113
-63 252 -118 55 -21 109 -43 120 -47 11 -5 27 -12 35 -15 8 -3 22 -10 30 -14
8 -5 86 -44 172 -86 176 -86 227 -131 276 -236 22 -48 25 -68 25 -155 0 -88
-4 -108 -27 -157 -82 -174 -215 -248 -445 -248 -132 0 -234 21 -336 70 -74 36
-107 65 -173 153 -47 62 -122 197 -122 220 0 25 -45 96 -64 101 -41 11 -84 6
-107 -13 l-23 -18 13 -268 c14 -287 20 -319 68 -353 38 -26 159 -82 179 -82 8
0 36 -6 62 -14 213 -63 659 -59 857 9 150 50 305 169 406 311 98 136 130 237
130 407 0 222 -61 355 -227 495 -28 23 -53 42 -57 42 -4 0 -26 12 -49 26 -57
36 -202 107 -263 129 -27 10 -78 31 -113 46 -34 16 -67 29 -73 29 -6 0 -23 6
-37 14 -15 8 -65 33 -112 56 -168 84 -241 146 -289 249 -21 46 -26 70 -25 136
0 131 53 228 162 300 95 63 304 73 451 22 41 -15 77 -30 80 -34 3 -5 24 -20
46 -34 92 -60 193 -191 241 -312 22 -54 39 -63 86 -44 60 25 70 54 58 165 -5
42 -14 120 -19 172 -17 155 -32 218 -55 234 -33 20 -172 73 -271 102 -78 23
-112 27 -255 29 -91 2 -192 0 -225 -5z"/>
<path d="M8730 6132 c-32 -15 -112 -17 -848 -22 -791 -5 -814 -6 -828 -24 -17
-25 -19 -142 -2 -152 6 -4 56 -11 110 -15 115 -9 149 -25 175 -83 17 -38 18
-92 18 -981 0 -889 -1 -942 -18 -973 -23 -42 -85 -71 -153 -72 -28 0 -74 -7
-103 -16 l-54 -16 7 -64 c9 -83 11 -90 51 -108 31 -15 56 -15 292 -1 181 10
449 15 898 15 592 0 642 2 660 18 48 40 50 48 56 236 6 165 16 241 49 376 6
24 9 54 5 67 -10 40 -111 53 -157 19 -9 -6 -26 -32 -38 -56 -12 -25 -25 -52
-30 -60 -5 -8 -27 -51 -50 -95 -22 -44 -62 -111 -88 -150 -39 -59 -57 -75
-107 -100 l-60 -30 -320 -3 c-292 -3 -323 -1 -355 15 -19 10 -40 29 -47 43
-10 19 -13 129 -13 442 l0 417 30 16 c21 11 61 15 150 15 150 0 251 -15 310
-46 64 -34 73 -42 110 -107 38 -67 62 -87 108 -87 72 0 71 -7 65 244 -5 188
-3 242 12 329 26 152 14 176 -76 156 -50 -12 -59 -22 -103 -115 -62 -132 -100
-151 -337 -167 l-166 -11 -49 25 -49 24 -8 225 c-4 124 -6 310 -5 413 3 181 4
190 25 207 32 25 143 31 433 22 281 -9 293 -12 354 -91 34 -46 86 -158 86
-188 0 -7 16 -47 35 -88 38 -81 61 -99 119 -93 37 4 43 23 45 143 1 44 6 107
11 140 5 33 10 127 11 208 0 127 -3 153 -18 180 -17 28 -25 32 -63 34 -26 1
-60 -6 -80 -15z"/>
<path d="M10400 6140 c-19 -5 -75 -16 -125 -24 -49 -9 -115 -25 -145 -36 -30
-12 -68 -26 -85 -32 -16 -7 -41 -17 -55 -25 -14 -7 -30 -13 -35 -13 -40 0
-232 -138 -333 -240 -110 -111 -228 -311 -309 -525 -37 -99 -63 -262 -63 -400
0 -115 26 -298 53 -380 41 -119 145 -321 204 -394 56 -69 211 -220 254 -247
152 -96 393 -204 455 -204 14 0 34 -5 45 -10 29 -16 252 -40 374 -40 125 0
312 21 399 44 84 22 208 70 302 117 l82 41 15 86 c9 48 19 121 22 162 4 41 16
128 27 193 10 65 18 130 16 145 -3 26 -6 27 -66 30 -59 3 -65 1 -90 -26 -15
-16 -38 -62 -51 -103 -22 -67 -79 -185 -120 -249 -48 -75 -117 -129 -214 -167
-68 -27 -80 -28 -232 -28 -120 0 -177 4 -230 18 -136 34 -208 60 -264 92 -92
54 -225 177 -281 260 -27 41 -50 77 -50 81 0 6 -19 52 -51 120 -10 23 -19 48
-19 56 0 8 -4 18 -8 24 -5 5 -20 52 -33 104 -21 86 -24 116 -24 325 0 209 2
238 23 320 66 252 157 413 302 532 84 69 75 63 150 100 165 79 449 88 643 21
189 -65 303 -195 323 -368 8 -75 22 -90 80 -90 35 0 51 6 70 25 25 25 25 25
19 163 -11 234 -23 360 -39 390 -16 31 -29 37 -116 57 -30 7 -89 22 -132 33
-200 54 -585 88 -688 62z"/>
<path d="M12810 6139 c-14 -6 -50 -15 -80 -20 -64 -12 -181 -48 -194 -60 -6
-5 -17 -9 -25 -9 -25 -1 -162 -72 -222 -115 -185 -134 -244 -199 -384 -420
-56 -88 -82 -160 -137 -375 -19 -73 -22 -114 -22 -290 -1 -217 4 -253 60 -448
71 -248 286 -526 509 -659 174 -103 203 -115 395 -158 140 -32 332 -34 509 -4
69 11 132 24 142 30 10 5 25 9 34 9 22 0 229 102 293 145 30 19 57 35 62 35 4
0 57 49 118 109 106 105 160 175 213 272 13 24 28 51 35 59 18 24 71 160 93
238 37 136 63 320 58 412 -12 201 -60 415 -122 543 -96 200 -176 311 -294 411
-49 42 -92 76 -96 76 -4 0 -24 13 -44 28 -20 15 -72 45 -116 66 -143 68 -177
81 -296 111 -89 22 -119 25 -282 24 -100 0 -193 -5 -207 -10z m315 -231 c66
-22 141 -55 159 -69 6 -5 40 -31 76 -58 109 -82 185 -165 234 -256 15 -28 31
-57 36 -65 8 -13 35 -74 60 -135 18 -44 40 -172 51 -303 12 -141 6 -427 -10
-512 -5 -25 -14 -74 -20 -110 -7 -36 -18 -79 -26 -97 -8 -17 -15 -36 -15 -43
0 -10 -7 -26 -41 -90 -4 -8 -23 -44 -41 -78 -19 -38 -63 -94 -106 -138 -89
-90 -165 -129 -296 -152 -82 -14 -106 -14 -192 -3 -112 15 -266 66 -328 108
-78 53 -206 185 -240 247 -19 34 -45 81 -58 106 -26 48 -68 172 -68 201 0 10
-4 20 -9 23 -5 3 -16 65 -26 138 -24 190 -12 504 25 638 34 124 54 189 67 220
32 76 97 197 127 235 91 118 217 201 326 215 87 11 248 0 315 -22z"/>
<path d="M17840 6139 c-14 -6 -50 -15 -80 -20 -74 -13 -215 -63 -330 -117 -93
-44 -286 -200 -347 -279 -20 -26 -40 -52 -44 -57 -62 -78 -102 -137 -130 -196
-41 -83 -82 -189 -95 -245 -25 -105 -53 -298 -53 -365 -1 -166 64 -495 108
-555 4 -5 13 -29 19 -51 7 -23 32 -72 57 -108 25 -37 45 -72 45 -77 0 -5 4 -9
10 -9 5 0 17 -14 26 -32 17 -32 204 -228 218 -228 5 0 25 -13 45 -29 44 -35
271 -151 296 -151 9 0 38 -7 64 -15 188 -59 540 -61 706 -4 17 6 46 15 65 19
19 5 58 20 85 33 28 14 75 36 105 50 30 15 79 42 108 62 30 19 58 35 63 35 6
0 58 48 118 108 139 138 208 242 299 452 8 19 21 47 29 62 7 14 13 35 13 47 0
11 6 35 14 53 28 66 40 173 39 368 0 272 -14 332 -139 585 -95 192 -208 325
-374 443 -36 26 -67 49 -70 52 -3 3 -39 22 -80 42 -225 108 -321 130 -575 134
-116 2 -200 -1 -215 -7z m276 -229 c73 -18 165 -54 189 -73 6 -4 37 -25 70
-47 66 -43 185 -160 232 -230 29 -44 94 -188 126 -280 50 -148 52 -162 52
-445 0 -234 -3 -280 -19 -345 -25 -95 -59 -205 -79 -250 -8 -19 -23 -53 -32
-75 -29 -70 -50 -107 -62 -112 -7 -3 -13 -10 -13 -16 0 -12 -13 -27 -90 -103
-118 -116 -320 -169 -514 -133 -101 19 -250 78 -313 123 -102 75 -196 188
-271 327 -37 70 -75 207 -103 381 -25 156 -22 321 10 503 39 225 67 319 129
435 51 94 56 103 70 118 6 7 12 17 12 21 0 17 133 142 173 163 120 62 282 76
433 38z"/>
<path d="M25670 6127 c-33 -15 -1618 -23 -1844 -9 -89 6 -169 6 -182 2 -39
-15 -43 -57 -41 -374 l2 -300 25 -6 c14 -4 41 -5 59 -2 37 5 67 45 77 102 8
51 54 169 82 214 35 57 84 102 123 114 32 10 263 26 360 25 50 0 111 -30 125
-61 13 -28 26 -1784 14 -1877 -9 -72 -13 -83 -42 -108 -18 -15 -44 -30 -58
-33 -14 -3 -50 -12 -81 -20 -30 -8 -66 -14 -80 -14 -13 0 -37 -10 -52 -23 -25
-20 -30 -31 -34 -90 -5 -63 -5 -67 18 -75 13 -4 132 -5 264 -1 132 4 345 8
473 8 279 1 282 2 301 86 11 48 11 59 -3 80 -16 25 -30 29 -140 41 -50 5 -66
12 -92 38 -18 18 -37 50 -43 72 -6 25 -11 372 -12 982 l-3 943 32 32 32 32
148 0 c240 0 330 -36 395 -156 11 -19 25 -45 33 -59 7 -14 32 -72 54 -130 48
-124 65 -143 114 -128 26 8 35 18 40 41 8 39 8 631 0 651 -7 19 -29 20 -64 3z"/>
<path d="M23115 6115 c-101 -9 -189 -10 -317 -4 -108 6 -186 5 -201 0 -29 -11
-47 -56 -47 -116 0 -54 17 -69 105 -90 107 -24 140 -52 162 -135 8 -31 11
-205 12 -570 0 -289 3 -564 7 -612 8 -106 0 -155 -26 -163 -36 -11 -57 5 -121
91 -98 131 -172 228 -179 234 -4 3 -35 43 -71 90 -35 47 -68 90 -74 96 -5 6
-17 22 -25 35 -8 12 -29 39 -46 58 -17 20 -57 72 -89 116 -32 44 -69 91 -82
105 -13 14 -52 63 -88 110 -110 142 -268 350 -304 399 -19 25 -37 48 -41 51
-4 3 -40 50 -81 104 -93 125 -85 116 -142 159 l-49 37 -283 0 c-336 0 -326 3
-326 -97 0 -34 2 -66 5 -71 3 -5 37 -12 76 -16 38 -3 94 -14 122 -24 45 -14
56 -23 73 -57 19 -39 20 -68 28 -940 4 -495 5 -924 1 -954 -4 -41 -13 -61 -33
-82 -25 -24 -112 -59 -148 -59 -23 0 -77 -31 -95 -54 -12 -14 -18 -39 -18 -73
0 -44 4 -54 23 -64 16 -9 130 -14 399 -17 371 -4 377 -3 397 17 15 15 21 34
21 69 0 59 -16 83 -72 106 -208 87 -202 75 -205 391 -1 132 -7 462 -14 734
l-12 495 22 17 c12 10 30 15 41 12 21 -6 87 -79 200 -224 36 -46 72 -90 80
-99 8 -8 33 -42 54 -75 39 -59 96 -131 148 -190 16 -16 28 -34 28 -38 0 -4 4
-13 10 -20 34 -42 104 -133 162 -211 37 -50 71 -95 75 -101 5 -5 37 -45 71
-88 35 -42 79 -101 99 -130 19 -28 68 -95 109 -147 111 -142 284 -372 324
-430 49 -71 90 -93 170 -94 51 -1 73 4 101 22 64 39 64 33 51 541 -7 251 -12
618 -12 816 0 198 -5 447 -12 553 -12 209 -6 268 34 323 26 34 87 68 139 77
42 7 42 7 55 67 7 33 13 71 13 84 1 26 -24 51 -49 49 -8 0 -78 -7 -155 -13z"/>
<path d="M19587 6113 c-53 -6 -71 -36 -65 -113 2 -33 7 -63 11 -66 4 -4 47 -6
97 -5 107 2 151 -13 177 -61 17 -31 18 -88 21 -1000 3 -1065 6 -1010 -58
-1043 -16 -8 -46 -15 -68 -15 -21 0 -62 -7 -90 -15 -44 -13 -54 -21 -67 -52
-21 -49 -20 -139 1 -147 20 -8 473 1 759 15 181 9 222 14 233 27 7 9 12 44 12
83 0 90 -10 99 -104 99 -82 0 -129 15 -166 55 l-25 27 -3 941 c-2 629 0 954 7
978 6 19 21 45 35 58 28 26 113 51 177 51 31 0 51 6 60 17 17 19 17 97 1 136
-11 26 -13 27 -95 27 -46 0 -140 -5 -209 -10 -97 -8 -171 -7 -324 5 -195 15
-240 16 -317 8z"/>
<path d="M14547 6093 c-25 -13 -27 -18 -27 -78 0 -86 13 -95 138 -95 107 0
139 -12 169 -62 19 -32 20 -65 27 -903 3 -479 3 -910 0 -960 l-7 -89 -46 -46
c-47 -46 -74 -56 -208 -75 -60 -9 -77 -33 -77 -108 0 -35 4 -69 9 -76 6 -11
37 -13 159 -7 83 4 315 11 516 14 201 4 370 11 377 15 15 9 27 88 19 115 -8
24 -52 46 -137 68 -35 9 -82 28 -103 43 -64 42 -73 90 -78 396 l-3 254 25 26
c27 27 11 24 375 60 145 14 243 31 260 45 6 4 26 11 45 15 19 4 44 14 55 21
11 8 27 14 37 14 10 0 18 4 18 9 0 5 10 13 22 17 13 4 46 24 75 45 284 210
349 694 135 1003 -55 79 -215 219 -265 231 -15 4 -30 11 -33 16 -3 5 -13 9
-22 9 -9 0 -29 6 -44 14 -14 8 -46 17 -69 21 -24 4 -50 11 -59 16 -8 4 -53 16
-100 25 -73 15 -159 18 -621 19 -442 2 -540 0 -562 -12z m1080 -188 c83 -28
161 -75 211 -126 42 -43 102 -141 102 -166 0 -10 4 -23 10 -29 14 -14 50 -179
50 -230 0 -55 -37 -245 -51 -259 -5 -5 -9 -17 -9 -27 0 -32 -61 -134 -108
-182 -47 -48 -152 -105 -232 -127 -25 -6 -93 -12 -152 -13 -93 -1 -110 2 -134
20 -16 11 -32 35 -36 52 -5 18 -7 264 -6 548 l3 516 28 24 c26 22 36 24 138
24 92 0 123 -4 186 -25z"/>
</g>
</svg>
